<?xml version="1.0" encoding="utf-8"?>
<!DOCTYPE svg PUBLIC "-//W3C//DTD SVG 1.0//EN" "http://www.w3.org/TR/2001/REC-SVG-20010904/DTD/svg10.dtd">
<svg version="1.0" xmlns="http://www.w3.org/2000/svg" width="1024px" height="1024px" viewBox="0 0 1024 1024" preserveAspectRatio="xMidYMid meet">
 <g fill="#ffffff">
  <path d="M0 512 l0 -512 512 0 512 0 0 512 0 512 -512 0 -512 0 0 -512z m552.5 504.9 c24.2 -2.1 30.3 -2.8 47.4 -5.8 120.8 -21.2 232.4 -87.4 309.2 -183.6 58.6 -73.4 96 -162.9 106.4 -255 4.7 -42.1 4.5 -74.9 -0.6 -116.5 -14.4 -116.1 -66.9 -221.7 -150.8 -303.3 -96.9 -94.1 -228.3 -145.8 -361.6 -142.4 -87.3 2.3 -168.2 24.8 -243 67.7 -82.7 47.4 -154.7 123.4 -197.9 208.8 -39.1 77.5 -59.4 170.6 -54.7 251.7 4.4 75.1 21 138 53.7 202.6 49.1 97.3 131 177.8 229.9 225.8 64 31.2 126.2 46.6 207 51.5 9.1 0.6 41.5 -0.3 55 -1.5z"/>
  <path d="M479 1007.4 c-58.2 -4.9 -106.5 -15.9 -155.5 -35.6 -132.8 -53.3 -236.2 -162.7 -281.4 -297.8 -18.4 -55.1 -26 -107.2 -24.8 -170.5 0.7 -37.4 2.8 -56 10.2 -92.6 19 -93.3 66.3 -179.9 136.2 -249.1 37 -36.7 72.8 -62.7 118.8 -86.4 24.3 -12.5 42.8 -20.3 69 -29 100.9 -33.4 207.3 -34.9 309.1 -4.3 125.8 37.8 231.2 125.8 292.9 244.4 27 51.8 44.6 110.8 52.1 174 2.2 18.7 3 72.1 1.5 92.6 -11.7 152.6 -90.3 287.8 -216.1 371.4 -22.4 14.9 -34.9 22.1 -57.4 33.1 -40.1 19.8 -85.4 34.7 -129.9 42.9 -31.3 5.7 -43.5 6.7 -83.2 7 -20.3 0.1 -39 0.1 -41.5 -0.1z m37.7 -25.1 c1.4 -2 1.3 -2.4 -1.2 -4.9 l-2.6 -2.6 -2.5 2.3 c-2.8 2.7 -3 3.6 -0.7 6.1 2.1 2.4 5.1 2 7 -0.9z m-37.3 0.1 c2.1 -2.1 2 -3.7 -0.5 -6 -1.5 -1.3 -2.4 -1.6 -3.6 -0.8 -3.2 2 -3.8 4.1 -1.9 6.3 2.3 2.5 3.9 2.6 6 0.5z m72.5 -0.5 c1.6 -1.8 1.8 -2.5 0.8 -4 -2.3 -3.7 -5.7 -3.6 -7.7 0.1 -0.8 1.5 -0.6 2.4 1 4 2.5 2.5 3.4 2.5 5.9 -0.1z m-105.6 -4.7 c1.5 -1.6 1.5 -2 0.1 -4 -1.7 -2.4 -4.3 -2.9 -6.2 -1 -1.6 1.6 -1.5 3.3 0.4 5.2 2 2.1 3.7 2 5.7 -0.2z m138.3 -0.3 c1.4 -1.5 1.6 -2.4 0.8 -3.7 -1.6 -2.5 -4.7 -2.6 -6.9 -0.2 -1.7 1.9 -1.7 2.1 0 4 2.3 2.5 3.7 2.5 6.1 -0.1z m-169.6 -5.9 c0.8 -1.6 0.6 -2.4 -1.1 -4.1 -2 -2 -2.2 -2 -4 -0.3 -2.2 2 -2.4 3.5 -0.7 5.2 1.8 1.8 4.6 1.4 5.8 -0.8z m202 0 c0.8 -1.6 0.6 -2.4 -1.1 -4.1 -2 -2 -2.2 -2 -4 -0.3 -2.2 2 -2.4 3.5 -0.7 5.2 1.8 1.8 4.6 1.4 5.8 -0.8z m-233.2 -6.2 c1.7 -1.7 1.5 -4.3 -0.4 -5.9 -3.1 -2.6 -7 2.5 -4.4 5.6 1.5 1.8 3.2 1.9 4.8 0.3z m262.7 -0.8 c1.7 -1.9 1.7 -2.1 0 -4 -2.3 -2.6 -4.1 -2.5 -5.5 0.1 -0.9 1.6 -0.8 2.5 0.6 4 2.1 2.4 2.7 2.4 4.9 -0.1z m-290.7 -11.2 c-0.2 -1.2 -1.1 -2.6 -2 -3.2 -1.4 -0.8 -2.2 -0.6 -3.9 1.1 l-2.1 2.1 2.1 2.1 c1.7 1.7 2.5 1.9 4.2 1.1 1.2 -0.7 1.9 -1.9 1.7 -3.2z m319.7 2.2 c3.5 -3.8 -1.1 -7.9 -4.8 -4.2 -2 2.1 -2 2.2 -0.2 4.2 2.2 2.5 2.7 2.5 5 0z m-349 -12 c1.8 -2 1.8 -2.1 -0.3 -4.3 l-2.2 -2.1 -2.1 2.1 c-1.7 1.7 -1.9 2.4 -1 4.2 1.5 2.6 3.3 2.7 5.6 0.1z m378 0 c1.8 -2 1.8 -2.1 -0.3 -4.3 l-2.2 -2.1 -2.2 2.1 c-2.1 2.2 -2.1 2.3 -0.3 4.3 1 1.1 2.1 2 2.5 2 0.4 0 1.5 -0.9 2.5 -2z m-159.6 -4 c7.3 -3.7 11.9 -11.8 10.7 -18.5 -0.9 -4.4 -8.6 -13 -13.2 -14.5 -1.9 -0.7 -5 -0.9 -6.8 -0.6 -7.6 1.4 -15.6 10.5 -15.6 17.6 0 3.7 2.9 9.7 6.2 12.6 6.1 5.6 12.3 6.7 18.7 3.4z m-48 -5.3 c11.5 -7.6 11.1 -21.3 -0.8 -28.8 -5.3 -3.4 -9.6 -3.7 -14.9 -1 -6 3.1 -11.2 10.2 -11.2 15.3 0.1 6.1 6.1 13.8 13 16.7 3.7 1.6 9.6 0.6 13.9 -2.2z m-92.8 -0.7 c11.5 -3.9 19.6 -9.8 34.4 -25.4 14.4 -15.2 17.8 -17.6 25.5 -17.6 2.2 0 4 -0.1 4 -0.2 0 -0.2 -0.7 -2.5 -1.6 -5.3 -0.8 -2.7 -2.3 -10.6 -3.4 -17.5 -1 -6.9 -2.8 -15.5 -3.9 -19.1 -4.6 -14.8 -15.9 -26.9 -32.8 -35 -5.7 -2.8 -10.7 -4.8 -11 -4.5 -1.4 1.4 -1.4 14.6 0.1 21.5 2.6 12.3 8.6 23.1 18.5 33.2 7.4 7.5 22.6 18.9 25.2 18.9 0.5 0 0.9 1.6 0.9 3.5 l0 3.5 -5.7 -0.1 c-3.2 0 -9.5 -0.6 -14 -1.3 l-8.3 -1.2 0 2.7 c0 2.6 -0.3 2.7 -6.7 3.4 -19.4 1.9 -33.1 7.5 -44.3 18.1 -4 3.8 -9.1 9.6 -11.2 12.9 l-3.9 5.9 3.6 1.8 c9.8 5.1 22.8 5.7 34.6 1.8z m248 0 c3.5 -1.2 6.7 -2.5 7.2 -2.9 1.2 -1.2 -7.1 -13.1 -13.3 -19.1 -10.3 -9.8 -22.8 -15.7 -38.4 -18.2 -7.4 -1.1 -7.6 -1.2 -7.6 -4 0 -3.3 -0.1 -3.3 -12.5 -1.3 -4.9 0.8 -11.4 1.5 -14.2 1.5 l-5.3 0 0 -3.5 c0 -3.1 0.6 -3.8 6.9 -7.9 15.6 -10 28.5 -25.6 33.6 -40.3 2.8 -7.9 4 -18.2 3.1 -24.7 -0.8 -5.2 0.1 -5.3 -13.2 1 -6.7 3.2 -11 6.1 -16.6 11.3 -11.8 11 -15.4 19.3 -18.8 43.3 -1.1 7.5 -2.7 15.4 -3.4 17.6 l-1.4 3.9 5.4 0.6 c7.6 0.8 12.8 4.2 20.7 13.6 10.6 12.6 19.6 20.3 28.9 25 15.2 7.6 25.3 8.6 38.9 4.1z m-353 -3.1 c0.9 -1.8 0.7 -2.5 -1 -4.2 l-2.1 -2.1 -2.1 2.1 c-1.7 1.7 -1.9 2.4 -1 4.2 0.7 1.1 2 2.1 3.1 2.1 1.1 0 2.4 -1 3.1 -2.1z m433.3 0.2 c1.7 -1.8 1.7 -2 -0.3 -4 -2.3 -2.3 -4.7 -1.9 -5.6 1 -0.7 2.2 1 4.9 3 4.9 0.6 0 2 -0.9 2.9 -1.9z m-460 -15.3 c0.8 -1.3 0.6 -2.2 -0.9 -3.8 l-1.8 -2 -2.4 2.2 c-2.2 2 -2.2 2.3 -0.6 4 1.9 2.2 4.1 2 5.7 -0.4z m486.9 0.4 c1.6 -1.7 1.5 -2 -0.4 -4.1 -2 -2.1 -2.2 -2.1 -4 -0.5 -2.2 2 -2.4 3.5 -0.7 5.2 1.7 1.7 3.2 1.5 5.1 -0.6z m-89.8 -12.7 c2.7 -2.6 3.1 -4.6 1.5 -7.5 -1.8 -3.4 -4.4 -4.1 -8.4 -2.5 -4.7 2 -5.8 4.2 -4 7.7 2.7 5.2 7.1 6.2 10.9 2.3z m-304.2 -0.7 c5 -2.6 5.8 -6.1 2.6 -10.2 -2.6 -3.3 -6.2 -3.4 -9.4 -0.1 -3.2 3.2 -3.1 5 0.4 8.6 3.3 3.3 3.4 3.3 6.4 1.7z m-119.5 -2 c3 -3 -1.1 -8.5 -4.4 -5.7 -2.5 2.1 -1.1 6.9 2.1 6.9 0.6 0 1.6 -0.5 2.3 -1.2z m538.6 -0.4 c2.1 -2 2 -2.7 -0.4 -4.9 -2 -1.8 -2.1 -1.8 -4.2 0.3 -2.1 2.1 -2.1 2.2 -0.3 4.2 2.2 2.4 2.9 2.5 4.9 0.4z m-265.6 -2.9 c6.8 -2.9 12.2 -10.2 12.2 -16.5 0 -6.2 -5.4 -13.6 -11.9 -16.3 -9.9 -4.2 -24.2 6.8 -22.8 17.5 0.8 6 4.8 11.2 10.8 14.2 6.2 3 6.8 3.1 11.7 1.1z m-193.3 -2.7 c5.7 -1.4 7.9 -2.7 19.8 -11.6 13.4 -10.1 17.2 -11.6 27.5 -11 l7.7 0.4 -2.1 -4.5 c-2.1 -4.5 -2.7 -6.8 -5.9 -23.6 -2.2 -12.1 -7 -20.9 -15.8 -29.2 -8.9 -8.2 -17.2 -13.2 -18.1 -10.7 -2.8 7.3 -1.1 19.8 4.2 30.4 3.4 6.9 14.7 18.9 22.9 24.3 5.6 3.7 6.3 4.5 6.3 7.4 0 3.1 -0.2 3.3 -3.4 3.3 -1.9 0 -6.4 -1.3 -10 -3 l-6.6 -2.9 0 2.4 c0 2.4 -0.2 2.5 -7.4 2.5 -18 0 -32.1 5.2 -42.2 15.5 -3.5 3.6 -6.4 6.9 -6.4 7.4 0 2.1 14.9 5.1 21.5 4.4 2.2 -0.3 5.8 -1 8 -1.5z m401.3 -0.8 c1.7 -0.7 3.2 -1.6 3.2 -2.1 0 -0.5 -2.8 -3.7 -6.2 -7.2 -10.1 -10.3 -20.4 -14.6 -37 -15.4 -10.5 -0.6 -10.8 -0.6 -10.8 -2.9 0 -3 -1 -3 -6.8 0.1 -2.6 1.4 -6.4 2.5 -8.4 2.5 -3.7 0 -3.8 -0.1 -3.8 -3.5 0 -3 0.7 -3.9 5.3 -7.3 17.7 -13.1 28 -32.3 26.2 -48.9 -0.4 -3.5 -0.9 -6.3 -1.2 -6.3 -1.1 0 -10.2 5.7 -14.8 9.3 -12.4 9.6 -17.1 19.1 -21 42.1 -0.9 5 -2.5 11 -3.5 13.4 -1.1 2.5 -2 4.5 -2 4.6 0 0 3.8 -0.1 8.4 -0.2 9.6 -0.4 13.8 0.9 22.2 7.4 2.7 2.1 7.5 5.8 10.6 8.2 8.7 6.7 14.3 8.3 26.3 7.8 5.5 -0.2 11.5 -0.9 13.3 -1.6z m-504.8 -12.9 c0.7 -1.5 0.6 -2.4 -0.6 -3.6 -3.1 -3.1 -8.2 0.6 -5.5 3.9 1.8 2.2 4.8 2 6.1 -0.3z m587.4 -0.3 c0.8 -1.4 0.7 -2.1 -0.6 -3.4 -3 -3 -7.5 0.9 -4.8 4.2 1.6 1.8 3.9 1.5 5.4 -0.8z m-610.5 -19.2 c1.6 -2 -0.3 -5.6 -2.9 -5.6 -2.6 0 -4.5 3.6 -2.9 5.6 0.6 0.8 1.9 1.4 2.9 1.4 1 0 2.3 -0.6 2.9 -1.4z m634 -0.5 c0.8 -1.4 0.6 -2.2 -0.8 -3.5 -2.2 -2 -3 -2 -5.3 0.1 -1.7 1.5 -1.7 1.7 -0.2 3.5 2.2 2.3 5.1 2.3 6.3 -0.1z m-200 -3.7 c1.2 -1.5 2.1 -3.5 2.1 -4.4 0 -1.8 -5.3 -7 -7 -7 -1.2 0 -8 6 -8 7 0 0.5 1.2 2.2 2.6 3.9 3.3 4 7.4 4.2 10.3 0.5z m-230.8 -3.3 c3.5 -3.6 3.6 -5.4 0.4 -8.6 -3.9 -4 -8.5 -2.7 -11.9 3.2 -1 1.8 1 5 4.2 6.7 3.7 2.1 3.9 2 7.3 -1.3z m-75.4 -3.3 c-0.8 -0.7 -3.7 -5.4 -6.2 -10.5 -7.6 -15.3 -18.5 -24.3 -33.9 -28.3 -7.8 -2 -22.4 -2.6 -27.3 -1.2 -2.2 0.7 -2.2 0.7 1.4 8 7.2 14.2 19.4 24.8 34.1 29.6 9.8 3.2 10.6 3.3 23.1 3.5 8.6 0.1 10.2 -0.1 8.8 -1.1z m398.9 -0.8 c12.1 -3.1 19.5 -7.2 27.7 -15.3 8.4 -8.4 17 -23 14.1 -24.1 -2.5 -0.9 -16.2 -0.7 -23.4 0.4 -16.1 2.6 -31.2 14.1 -38.5 29.5 -2.1 4.4 -4.5 8.8 -5.3 9.8 -1.4 1.6 -1 1.7 8 1.7 6.2 0 12.2 -0.7 17.4 -2z m-548.5 -9.6 c0.9 -1.1 1 -2 0.2 -3.2 -1.5 -2.4 -4.4 -2.7 -5.9 -0.7 -2.8 3.8 2.7 7.5 5.7 3.9z m677.2 -0.2 c1.6 -1.7 1.5 -2 -0.7 -4.1 -2.2 -2 -2.5 -2.1 -4 -0.6 -1.9 1.9 -2 3.7 -0.4 5.3 1.7 1.7 3.2 1.5 5.1 -0.6z m-698 -23 c1.6 -1.7 1.5 -2 -0.4 -4.1 -2 -2.1 -2.2 -2.1 -4 -0.5 -2.2 2 -2.4 3.5 -0.7 5.2 1.7 1.7 3.2 1.5 5.1 -0.6z m718.1 0.2 c2.1 -2 2 -2.7 -0.5 -5 -2.1 -1.9 -2.1 -1.8 -4 0.5 -1.8 2.2 -1.8 2.5 -0.3 4.2 2.1 2.3 2.8 2.4 4.8 0.3z m-737 -24 c1.5 -3.9 -2.7 -6.5 -5.7 -3.6 -1.9 2 -1.9 2 0.2 4.1 2.1 2.1 4.6 2 5.5 -0.5z m756.5 0.2 c2.8 -3.4 -2.1 -6.9 -5.3 -3.7 -1.6 1.7 -1.7 2.2 -0.6 3.5 1.6 2 4.4 2.1 5.9 0.2z m-774 -25 c0.9 -1.1 1 -2 0.1 -3.6 -1.3 -2.5 -4.7 -2.4 -6.3 0.2 -2.2 3.4 3.6 6.6 6.2 3.4z m791 0 c0.9 -1.1 1 -2 0.1 -3.6 -1.3 -2.5 -4.7 -2.4 -6.3 0.2 -2.2 3.4 3.6 6.6 6.2 3.4z m-691.7 -11.6 c-6.6 -4.2 -11.6 -10.2 -13.3 -16 -1.8 -6 -0.8 -18.7 2.1 -24.5 5 -10.4 18.4 -20.4 35.1 -26 19.4 -6.6 43.9 -9.1 75.4 -7.5 53.3 2.7 101.1 13.8 201.5 46.9 49.3 16.2 61.8 19.9 78.1 23 50.4 9.6 86.7 0.2 99 -25.5 4.2 -8.9 4.3 -14.3 0.2 -21.5 -2.2 -4 -4.4 -6.3 -8.4 -8.7 -5.1 -3.2 -5.8 -3.3 -12.6 -2.9 -8.7 0.5 -14.2 3.5 -17.3 9.7 -2.3 4.5 -1.7 7.1 2.3 10.9 3.6 3.3 4.6 2.1 4 -4.8 -0.5 -5.7 -0.4 -6.2 2.5 -9 2.9 -3 3.4 -3.1 11.2 -3.1 8 0 8.3 0.1 11.6 3.4 3.3 3.3 3.4 3.5 3.4 12 0 10.5 -1.5 13.9 -9.2 21.3 -6.8 6.4 -15.3 10.7 -26.1 13.3 -6.6 1.6 -11.7 2 -26.7 2 -36.7 0 -47.5 -2.8 -149 -38 -54.2 -18.8 -96.8 -29.8 -138 -35.7 -17.7 -2.5 -63.3 -2.5 -77 0.1 -22.7 4.2 -37.7 11.4 -51 24.6 -11.4 11.4 -15.5 19.2 -15.5 30 0 5.8 0.5 8.5 2.3 12.2 2.9 5.9 9.2 12.2 15.2 15.3 6.9 3.7 7 3 0.2 -1.5z m567.3 -0.8 c4.1 -1.2 13.5 -5.3 13.5 -5.9 0 -1.1 -2.6 -5.1 -5.8 -9 -4.8 -5.9 -14.1 -11.9 -22.5 -14.4 -6.1 -1.9 -8.5 -2.1 -19.6 -1.6 -8.9 0.4 -15.3 1.3 -21.6 3.1 -11.4 3.1 -22.7 7.4 -19.8 7.5 3.6 0.1 10.3 3.1 17.6 7.8 9.4 6 15.1 8.8 23.3 11.2 12.2 3.7 25.1 4.2 34.9 1.3z m-289.5 -1.6 c0 -0.2 -2.1 -1.1 -4.7 -2.1 -2.7 -1 -14.3 -6.2 -26 -11.6 -34.4 -15.9 -67.5 -28 -91.8 -33.4 -38.7 -8.6 -75.7 -7 -97.8 4.1 -8.6 4.4 -15.7 13.4 -15.7 19.9 0 7.9 10.6 16.5 18.6 15 3.9 -0.7 8.9 -4.6 10.9 -8.5 1.3 -2.5 1.3 -3.1 -0.4 -5.1 l-1.8 -2.2 -3.1 2.1 c-2.9 2.1 -7.4 2.8 -10.6 1.6 -1.2 -0.5 -1.6 -2.1 -1.6 -6.9 0 -5.4 0.4 -6.8 2.6 -9.5 4.6 -5.4 15.8 -10 29.1 -11.9 3.9 -0.6 14.6 -1.1 23.7 -1.1 41 0 75.7 9.3 135.1 36.1 24.8 11.2 33.5 14.7 33.5 13.5z m-393.2 -11.8 c3 -3 0 -7.8 -3.7 -5.8 -3.2 1.7 -2.1 7 1.4 7 0.6 0 1.6 -0.5 2.3 -1.2z m822 0 c1.8 -1.8 1.4 -4.6 -0.9 -5.8 -3.9 -2.2 -7 3.7 -3.1 5.9 2.2 1.3 2.6 1.3 4 -0.1z m-71.4 -12.8 c1 -1 -6.8 -10.1 -11.7 -13.7 -7.3 -5.4 -18.1 -7.8 -30.2 -6.8 l-8.2 0.7 8.1 7.7 c8.9 8.5 12.5 10.8 20.1 12.7 5.3 1.4 20.3 1 21.9 -0.6z m-130.6 -11.2 c9.6 -3.5 21.8 -11.1 25.5 -15.9 1.3 -1.9 3.5 -5.3 4.6 -7.7 2.1 -4 2.1 -4.5 0.7 -6.8 -1.5 -2.1 -2.1 -2.3 -6.4 -1.7 -18.4 2.4 -30.2 13.4 -36.7 34.1 -0.8 2.8 -1.3 2.8 12.3 -2z m-632.8 -5.8 c0 -2.5 -3 -4.1 -5.3 -2.9 -2.1 1.2 -2.2 3.3 -0.1 5.3 1.9 2 5.4 0.5 5.4 -2.4z m849.4 1.8 c1.5 -2.1 1.4 -2.4 -0.3 -4.2 -3.6 -3.5 -7.9 0.7 -4.6 4.4 2.3 2.5 3 2.5 4.9 -0.2z m-154.6 -5.8 c4 0 4.2 -0.1 4.2 -3 0 -2.3 1 -3.7 4.8 -6.7 8.2 -6.6 19.7 -18.7 21.9 -23.3 1.6 -3.2 1.9 -4.8 1.2 -6.2 -0.5 -1 -1.4 -1.8 -1.8 -1.8 -0.5 0 -3.7 2.1 -7.1 4.7 -6.2 4.6 -17.7 17.5 -24 26.9 -1.8 2.7 -4.5 6.2 -5.9 7.8 l-2.6 2.9 2.5 -0.6 c1.4 -0.4 4.4 -0.7 6.8 -0.7z m54.5 -15.1 c16 -4.1 23.3 -7.5 30.1 -14.3 6.1 -6.1 13.3 -17.7 12.1 -19.6 -1.6 -2.7 -18.1 -0.5 -27.5 3.7 -9.1 4 -13.2 8.9 -17.1 20.1 -1 3 -3 7 -4.5 8.9 -1.4 1.8 -2.2 3.3 -1.9 3.3 0.4 0 4.3 -0.9 8.8 -2.1z m-761.3 -8.8 c0 -2.4 -2.5 -4.5 -4.5 -3.7 -2.4 0.9 -2.9 3.5 -1 5.6 1.3 1.5 2.2 1.7 3.6 0.9 1.1 -0.5 1.9 -1.8 1.9 -2.8z m873.9 1 c1.3 -2.4 -0.8 -5.5 -3.4 -5 -2.8 0.6 -4.2 3.4 -2.6 5.3 1.8 2.2 4.8 2 6 -0.3z m-884.4 -31.3 c-1 -2.6 -3.7 -3.1 -5.8 -1 -1.9 2 -1.9 2 0.3 4.2 2.2 2.2 2.2 2.2 4.2 0.3 1.1 -1.1 1.6 -2.6 1.3 -3.5z m895.5 0.7 c0 -2 -2.7 -3.7 -4.9 -3 -2.9 0.9 -3.3 3.3 -1 5.6 2 2 2.2 2 4 0.3 1 -0.9 1.9 -2.3 1.9 -2.9z m-452 -4.2 c4.7 -1.3 13 -4.6 18.5 -7.4 34.5 -17.2 63.5 -49.4 103.9 -115.1 4.7 -7.8 4.7 -7.8 9.1 -7.8 3.7 0 5.5 0.8 12.2 5.8 6.8 4.9 16.6 11.5 26.6 17.6 3.4 2.1 3.4 2.7 -0.2 22.1 -8.8 46.9 5.1 79.3 37 85.9 10.5 2.2 21.9 -0.4 32.7 -7.3 5.4 -3.5 10.8 -8.9 9.8 -9.8 -0.2 -0.2 -2.5 1 -5.2 2.7 -6.4 4 -10.3 5 -20.4 5 -12.7 -0.1 -18.6 -3.5 -24 -13.9 -6.7 -13.2 -7.6 -39.1 -2.4 -65.7 l1.6 -8.1 6.7 -1.2 c6.8 -1.2 13.1 -4.2 13.1 -6.1 0 -0.6 -3.3 -1 -8 -1 l-8 0 0 -3.7 c0 -10.3 18.3 -66.2 38.5 -117.4 4.1 -10.4 8 -21.8 8.6 -25.3 1.1 -5.6 1 -6.7 -0.7 -10.1 -4.5 -9.1 -11.7 -10.1 -25 -3.5 -25.2 12.4 -50.4 40.4 -93 103.2 -7.8 11.6 -8 11.7 -11.8 11.8 -2.7 0 -5.6 -1.1 -9.7 -3.5 -8.3 -5.1 -19.4 -10.1 -26.5 -11.9 -6.9 -1.8 -24.9 -2.2 -25.9 -0.6 -0.3 0.6 -1.7 1 -3.1 1 -3.5 0 -8.2 2.6 -12.7 6.9 -4.7 4.4 -6.7 8 -6.7 11.9 0 3.1 3.3 8.2 5.4 8.2 0.7 0 3.4 -2.5 6 -5.5 5.5 -6.4 10.2 -9.1 19.5 -11.1 14 -2.9 28 -1.1 41.9 5.6 8 3.8 8.2 4 8.2 7.5 0 3.9 -5.1 12 -24.9 39 -36.2 49.4 -66.7 76.9 -97.4 87.4 -14.1 4.9 -32.6 5.2 -45.7 0.8 -3.8 -1.3 -7.4 -2 -8 -1.7 -1.5 0.9 6.8 8.4 12.7 11.3 2.7 1.4 7.6 3.3 10.8 4.2 13.2 3.9 22.4 3.8 36.5 -0.2z m-337.7 -0.2 c28.6 -4.9 39.1 -5.6 82.7 -5.6 39.8 0 41.1 -0.1 31.5 -1.4 -6.9 -1 -19.8 -1.4 -41.5 -1.4 -26.9 0 -33.9 0.3 -47.5 2.2 -15.3 2.1 -34.7 5.9 -41 8.1 l-3 1 3.5 -0.5 c1.9 -0.2 8.8 -1.3 15.3 -2.4z m-50.1 -17.5 c26.1 -6 45.3 -16.9 63.6 -36 25.1 -26.4 40.5 -63.4 40.5 -97.6 -0.1 -49 -28.9 -83.1 -77.4 -91.6 -17.2 -3 -40.1 -0.6 -58.9 6.2 -28.6 10.2 -52.6 30.9 -60.6 51.9 -2.6 7.2 -2.9 11 -1.3 17 2 7.3 11.9 14.5 19.8 14.5 2.7 0 2.6 -1 -0.4 -3.8 -3.7 -3.5 -4.8 -8.6 -4.4 -20.3 0.4 -9.5 0.8 -11.1 4.1 -18 4.6 -9.8 14.4 -20.3 25.9 -27.9 15.4 -10.1 30.4 -14.8 50.1 -15.7 41.9 -1.9 69.9 17 79.5 53.5 3.7 14.2 4.4 38.8 1.5 55.7 -3.7 21.8 -12.6 44.3 -24.4 62 -2.9 4.4 -9.6 12.4 -14.8 17.8 -19.8 20.7 -41.7 30.7 -67.1 30.7 -29.1 0 -44.3 -12.8 -42.6 -35.6 0.3 -4 1.1 -8.2 1.7 -9.4 3.4 -6.3 -6.2 -1.4 -10.4 5.3 -10.9 17.6 5.6 38.4 34.6 43.7 8.8 1.5 29 0.4 41 -2.4z m-29.9 -20 c1 -1 1.6 -5.1 2 -13.8 1.7 -36.8 20.6 -122.5 34.5 -156.5 3.2 -7.8 2.9 -9.3 -2 -9.3 -4 0 -8.3 2.4 -11.1 6.2 -8.5 11.7 -28.4 75.2 -36.1 115.3 -7.3 38.2 -5.7 51.2 6.9 57.8 3.7 2 4 2 5.8 0.3z m320.2 -2.1 c9 -2.4 17.3 -7.3 25.6 -15.2 6.4 -6.2 8.2 -7.3 11.1 -7.3 3 0 3.6 0.4 4.6 3.4 3.1 8.6 15.2 17.4 26.7 19.5 15.3 2.8 35.4 -8.5 48.2 -27.1 8 -11.6 14.3 -25.1 12.2 -26.3 -0.5 -0.4 -2.6 2.9 -4.5 7.2 -7.9 17.3 -21 32.1 -32.1 36.3 -7.5 2.8 -19.8 2.5 -24.1 -0.7 -6.4 -4.7 -9.4 -12.3 -9.6 -24.1 l-0.1 -7.4 8 -2.7 c11.7 -4 19.6 -8.6 26.5 -15.4 14.2 -14.3 16.7 -30.8 5.8 -38.7 -5.1 -3.7 -8.4 -4.4 -15.2 -3.1 -9.1 1.7 -16.3 5.8 -24.6 14.1 -12.9 12.9 -19.6 27.7 -20.8 46.1 l-0.7 9.6 -6 6.8 c-10.9 12.4 -20.3 17.5 -32.3 17.5 -8.1 0 -12 -2 -14.8 -7.6 -1.6 -3.4 -1.9 -6.1 -1.9 -19.9 0 -14.9 0.2 -16.6 2.9 -24.8 4.8 -14.8 16.3 -31.7 23.6 -34.7 1.5 -0.6 4.7 -1 7.1 -0.8 l4.4 0.3 0.3 6 c0.4 7.9 -0.3 11.5 -3.3 15.9 -2.9 4.2 -3.1 5.6 -1 5.6 4.6 0 13.5 -12.9 13.5 -19.5 0 -4.8 -4 -10.6 -9 -13.2 -6.1 -3.3 -11.9 -2.5 -23 2.9 -15 7.3 -27.2 22.3 -33.6 41.3 -2.1 6.2 -2.8 10.8 -3.3 20.1 -0.6 11.3 -0.8 12.2 -3.5 15.5 -4.9 5.8 -10.3 8.9 -15.7 8.9 -7 0 -7.2 -0.8 -6.6 -21.9 0.4 -12.7 1.1 -20.1 2.6 -26.5 2 -8.7 2.2 -9 10.9 -19 27.4 -31.4 43.4 -59.2 50.8 -88.5 3.8 -14.7 2.9 -22.2 -3.1 -26.9 -3.6 -2.9 -8 -2.8 -14.1 0.3 -12 6.1 -23 19.4 -33.5 41 -13.7 28.2 -25.3 69.9 -28.9 103.9 -0.6 6 -1.8 12.3 -2.7 14 -3.3 6.4 -9.4 14.5 -13.9 18.5 -4.4 3.9 -5.1 4.2 -9.8 3.9 l-5.1 -0.3 0.1 -10.5 c0 -11.7 1.9 -21.4 8.9 -47.2 2.5 -8.9 4.5 -17.3 4.5 -18.5 0 -2.8 -3.6 -5.3 -7.8 -5.3 -5.3 0 -7.6 3.3 -11.7 16.6 -10.1 32.9 -13.5 40.7 -22.7 52.9 -7.2 9.4 -12.7 13.5 -18.3 13.5 -2.3 0 -4.7 -0.6 -5.3 -1.3 -0.6 -0.7 -1.4 -3.9 -1.7 -7.3 -1.3 -11 3.3 -35.3 11.7 -62.3 l4.2 -13.3 -2.3 -1.9 c-3.7 -3 -8.7 -2.5 -12.6 1.4 -2.6 2.6 -4.2 6.1 -7.8 17.3 -10 31 -12.4 50.6 -7.8 62.6 2.5 6.5 7.6 11.4 12.9 12.4 7.1 1.4 18 -5.5 27.2 -17.1 4.5 -5.7 5.6 -6.5 8.6 -6.5 3.6 0 3.5 -0.1 4.9 8 1.2 7.5 8.4 14.4 14.6 14.2 5.8 -0.1 16 -7.2 22.4 -15.4 2.4 -3.2 3.5 -3.8 6.6 -3.8 3.4 0 3.7 0.2 4.2 3.8 1.5 9 10.7 17.2 17.3 15.3 4.7 -1.3 9.5 -4.1 14.5 -8.3 3.4 -2.8 5.4 -3.8 8 -3.8 3.2 0 3.9 0.6 6.8 5.1 3.7 5.7 8.8 9.4 16.4 12 6.4 2.3 8.7 2.3 16.2 0.4z m503.5 -2 c9.1 -2.2 13.5 -4 21.1 -9.1 11.4 -7.5 24.5 -23.3 29.9 -35.9 2.3 -5.3 2.3 -5.5 1.2 -5.5 -0.5 0 -1.9 1.9 -3.2 4.3 -6.7 12 -17 24.5 -24.4 29.6 -10.1 7 -11.5 7.5 -22.6 7.9 -9.7 0.3 -10.8 0.2 -14 -2 -1.9 -1.3 -4.5 -4.3 -5.8 -6.8 -1.9 -3.9 -2.2 -5.8 -2 -13.4 l0.3 -8.9 6.5 -2.1 c11.7 -4 21 -9.5 28.6 -17.1 8.1 -8.1 11.5 -14.5 12.2 -22.7 0.4 -4.9 0 -6.4 -2.2 -10.3 -3.8 -6.5 -9 -8.9 -17.3 -8.2 -11 1.1 -20.5 6.7 -32 19.1 -9.8 10.4 -18.3 30.6 -18.3 43.2 0 3.7 -0.7 5.1 -4.9 10.2 -10.5 12.5 -18.8 18.2 -27 18.2 -6.7 0 -7.6 -1.6 -6.8 -12.9 1.2 -17 8.6 -46 19.1 -74.7 l5.4 -14.9 5.4 0.1 c2.9 0.1 12.3 0.5 20.8 0.9 24.1 1.2 52.2 -1.9 73.4 -8 10.6 -3.1 15.7 -5.6 18.5 -9.1 2.6 -3.3 2.6 -4.9 0.1 -7.4 -2.5 -2.5 -6.6 -2.5 -11 0 -16.6 9.5 -25.3 12.7 -43.4 16 -11.3 2.1 -32.5 2.5 -49.6 1.1 l-7.5 -0.6 -0.3 -3.6 c-0.2 -2.8 1.5 -7.4 7.6 -20.5 4.4 -9.3 8.3 -17.9 8.6 -19.1 1.6 -5 -4.7 -9.9 -10.4 -8.3 -6.8 1.9 -11.9 9.4 -22.1 32.5 -5.5 12.3 -7.1 15.1 -9 15.3 -1.2 0.2 -9.6 -0.6 -18.7 -1.9 -14.7 -2 -17.4 -2.2 -26.5 -1.1 -5.6 0.6 -12.6 2.1 -15.6 3.2 -5.7 2.2 -13.5 8 -12.3 9.2 0.4 0.4 3.3 -0.6 6.4 -2.1 11 -5.6 28.9 -6.4 53.1 -2.6 l10.9 1.8 -0.5 4.1 c-0.2 2.3 -3.2 11.8 -6.6 21.3 -13.2 36.9 -18.6 63.9 -15.1 76.4 1.5 5.4 5 10.1 9.5 12.7 8.6 5 20.8 0.4 35.1 -13 7 -6.7 8.7 -7.8 11.7 -7.8 3.1 0 3.7 0.4 4.6 3.3 2.9 8.6 11.9 16.3 22.1 19.1 7.1 1.9 9.1 1.9 17 0.1z m-167.6 -2.7 c1.8 -2 5 -7.7 7.6 -13.8 12.9 -30.8 20.8 -46.6 28.6 -56.9 4.4 -5.9 4.7 -6.1 9 -6.1 l4.4 0 0 5.8 c0 6.6 1.7 10.6 4.6 11 4.5 0.6 10.4 -10.8 10.4 -20.1 0 -3.1 -0.7 -4.6 -3.5 -7.4 -3.3 -3.3 -3.9 -3.5 -8.6 -3.1 -3.1 0.3 -6.1 1.4 -7.7 2.7 -1.5 1.2 -4.3 3.2 -6.2 4.5 -1.9 1.3 -4.8 4.2 -6.5 6.5 -2.4 3.3 -3.6 4.1 -6.2 4.1 -3.1 0 -3.3 -0.2 -3.3 -3.5 0 -8.4 -5.8 -15.1 -12 -14 -6.7 1.2 -7.4 2.7 -7.5 18.2 -0.2 15.4 -2 25 -10.1 53.1 -2.4 8.4 -4.4 16.2 -4.4 17.2 0 2.2 3.6 5 6.3 5 1.1 0 3.3 -1.5 5.1 -3.2z m-217.4 -152.7 c11.1 -10.3 17 -17.5 19.1 -23.3 1.1 -3.3 1.1 -4.2 -0.4 -7.3 -1 -2.2 -3.1 -4.2 -5.3 -5.2 -3.4 -1.7 -3.7 -1.7 -7.9 0.6 -2.5 1.3 -5.6 3.9 -7 5.7 -2.1 2.7 -3.3 3.4 -6 3.4 -2.4 0 -3.5 -0.5 -4 -1.9 -0.8 -2.7 -7.9 -8.9 -11 -9.7 -3.3 -0.8 -8.4 2.2 -10.9 6.5 -1.7 3 -1.8 3.9 -0.7 8 0.7 2.5 2.9 7.5 5.1 11.1 4.3 7.3 16.7 22.3 18 21.8 0.5 -0.2 5.4 -4.5 11 -9.7z m440.1 -38.7 c1.7 -2.1 0 -4.9 -3.1 -4.9 -3.1 0 -4.8 2.8 -3.1 4.9 0.8 0.9 2.1 1.6 3.1 1.6 1 0 2.3 -0.7 3.1 -1.6z m-47.2 -29.5 c2.9 -3.2 1 -7.2 -7.3 -15.3 -22.5 -22.1 -115.5 -88.4 -197.1 -140.6 -18.3 -11.7 -78.5 -49.4 -83.1 -52 -3.3 -1.9 -4.7 -3.7 -7.6 -9.9 -5.4 -11.5 -10.8 -18.9 -20.6 -28.3 -20.9 -20.2 -47.5 -29.6 -89.7 -31.8 -22.2 -1.1 -31.7 -3.8 -42.2 -11.6 l-3.2 -2.4 -1.3 2.2 c-1.9 3.5 -1.4 18.9 1 29.5 2.6 11.6 8.9 27.7 14.6 37.3 12.9 21.9 31.9 36.8 57.7 45.4 14.5 4.9 25.8 6.6 42.8 6.6 13.9 0 14.4 0.1 16.2 2.4 1.9 2.4 12.6 9.2 53.4 33.8 76.9 46.4 126.4 74 186.5 104.2 38.8 19.4 57.2 27.6 68.5 30.6 8.9 2.4 9 2.4 11.4 -0.1z m-859.8 -1 c0.9 -1.8 0.7 -2.5 -1 -4.2 -2 -2 -2.1 -2 -4.1 -0.2 -2.5 2.2 -2.6 4.1 -0.2 5.4 2.6 1.6 4 1.3 5.3 -1z m898.3 0.8 c1.3 -0.9 1.6 -2 1.2 -3.4 -1 -3.1 -3.6 -3.7 -6 -1.4 -1.9 2 -1.9 2.1 -0.1 4.1 2.1 2.4 2.5 2.4 4.9 0.7z m-676.2 -9.7 c26.5 -4.5 52.8 -15.3 66.2 -27.1 7.4 -6.6 8.4 -10.5 11.6 -50 3.6 -44 3.7 -47.9 1 -53.4 -1.6 -3.4 -3.7 -5.6 -7 -7.7 -4.4 -2.7 -4.8 -3.3 -5.3 -7.9 -0.9 -7.2 -4.8 -15.1 -10.1 -20.1 -5.5 -5.3 -15.3 -11.3 -22.1 -13.4 -4 -1.3 -5.5 -2.4 -7.3 -5.4 -5.4 -9.4 -14.5 -16.4 -26.5 -20.5 -6.2 -2.1 -9.5 -2.5 -18.4 -2.5 l-10.9 0 -1.2 -6.2 c-1.3 -7.1 -4.9 -13.1 -9.3 -15.3 -2.9 -1.5 -3.3 -1.5 -7.5 0.4 -4.4 2.1 -7.4 6.1 -7.4 10.1 0 1.6 -0.6 2 -3.4 2 -1.8 0 -5.3 -0.9 -7.8 -2 -3.6 -1.6 -5.1 -1.7 -8.1 -0.9 -4.6 1.3 -8.7 6.1 -8.7 10.3 0 4 4.7 11.4 9.5 15.1 2.8 2.1 3.5 3.3 3.5 6 0 3.4 -0.3 3.6 -8.7 7.9 -6.2 3.1 -10.3 6 -14.1 9.9 -6.5 6.9 -7.4 9.4 -6.6 16.8 l0.7 5.9 -6.1 6.4 c-7.9 8.5 -12.7 18.1 -12.7 25.5 0.1 7 4.3 15.3 9.7 19 l3.7 2.6 0.1 7.4 c0 6.6 -0.3 7.8 -2.5 10.1 l-2.5 2.6 10 17.8 c13.6 24.3 21.9 38.1 25.7 42.5 3.4 4 11.6 8.8 19.8 11.6 13.9 4.8 34.1 5.7 52.7 2.5z m-212.2 -22.5 c0 -2 -2.7 -3.7 -4.9 -3 -2.9 0.9 -3.3 3.3 -1 5.6 2 2 2.2 2 4 0.3 1 -0.9 1.9 -2.3 1.9 -2.9z m880.7 -0.9 c-1.1 -2.8 -3.7 -3 -6 -0.7 l-2.2 2.2 2.4 2 c2.4 2 2.5 2 4.4 0 1.2 -1.1 1.7 -2.6 1.4 -3.5z m-869.3 -29.4 c-1.6 -2.5 -5.1 -2.7 -6.4 -0.3 -0.8 1.7 -0.6 2.5 1.1 4.2 l2.1 2.1 2.1 -2.1 c1.7 -1.7 1.9 -2.5 1.1 -3.9z m857.6 1.3 c0 -2 -2.7 -3.7 -4.9 -3 -3 0.9 -3.5 3.7 -1 5.8 2 1.6 2.3 1.6 4 0.1 1.1 -1 1.9 -2.3 1.9 -2.9z m-15.5 -26.5 c1.8 -2 1.8 -2.1 -0.3 -4.3 l-2.2 -2.1 -2.2 2.1 c-2.1 2.2 -2.1 2.3 -0.3 4.3 1 1.1 2.1 2 2.5 2 0.4 0 1.5 -0.9 2.5 -2z m-827 -0.6 c1.5 -1.5 1.4 -1.8 -0.6 -4 -1.7 -1.8 -2.6 -2.1 -4 -1.4 -2.5 1.4 -2.9 3.2 -1.1 5.3 1.9 2.1 3.6 2.2 5.7 0.1z m811.9 -27.6 c0.8 -1.4 0.6 -2.2 -0.9 -3.8 -1.9 -1.8 -2.2 -1.9 -4.3 -0.4 -2.6 1.8 -2.7 2.7 -0.6 4.9 2 1.9 4.3 1.6 5.8 -0.7z m-795.9 -0.8 c1.8 -2 1.8 -2.1 -0.2 -4.1 -1.7 -1.7 -2.4 -1.9 -4.2 -1 -2.5 1.4 -2.7 4.6 -0.3 6 2.4 1.4 2.6 1.4 4.7 -0.9z m778.4 -25.4 c0.9 -1.1 1 -2 0.1 -3.6 -1.3 -2.5 -4.7 -2.4 -6.3 0.2 -2.2 3.4 3.6 6.6 6.2 3.4z m-759.8 -2.2 c1.7 -2.1 0 -4.9 -3.1 -4.9 -3.1 0 -4.8 2.8 -3.1 4.9 0.8 0.9 2.1 1.6 3.1 1.6 1 0 2.3 -0.7 3.1 -1.6z m739.3 -23.2 c1.5 -1.8 1.5 -2 -0.4 -3.7 -3.2 -2.9 -7.8 0.6 -5 4 1.7 2 3.3 1.9 5.4 -0.3z m-719.9 -2.2 c3.5 -3.8 -1.1 -7.9 -4.8 -4.2 -2 2.1 -2 2.2 -0.2 4.2 2.2 2.5 2.7 2.5 5 0z m634 -6.1 c0.9 -1.6 3.5 -4.2 5.9 -5.7 l4.2 -2.7 -3.6 -1.7 c-2 -1 -4.5 -3.4 -5.6 -5.4 l-2.1 -3.6 -2.1 3.7 c-1.2 2 -3.5 4.4 -5.2 5.3 -1.6 0.9 -3 1.9 -3 2.2 0.1 0.3 1.5 1.4 3.2 2.5 1.7 1.1 3.9 3.5 4.7 5.2 0.9 1.8 1.7 3.3 1.8 3.3 0.1 0 1 -1.4 1.8 -3.1z m64.9 -16.1 c0.8 -1.4 0.6 -2.2 -1.1 -4 -2.2 -2.1 -2.3 -2.1 -4.3 -0.3 -2.3 2.1 -2.5 3.6 -0.8 5.3 1.7 1.7 4.8 1.1 6.2 -1z m-128 -6.3 c2.8 -8.7 8.5 -13.7 21.1 -18.6 l3 -1.1 -5.6 -2 c-9.5 -3.2 -15.4 -9.6 -19.4 -20.7 -1.1 -3.1 -1.4 -3.3 -2 -1.6 -2.5 7 -7.1 14.8 -10.3 17.5 -2 1.6 -5.9 3.7 -8.7 4.6 -5.5 1.8 -7.9 3.4 -5.1 3.4 3.5 0 12.5 5.1 16.4 9.4 2.5 2.7 4.7 6.5 5.8 10 1 3.1 2.1 5.3 2.5 4.9 0.3 -0.5 1.4 -3.1 2.3 -5.8z m-548.3 3.9 c1.7 -2.1 0 -4.9 -3.1 -4.9 -3.1 0 -4.8 2.8 -3.1 4.9 0.8 0.9 2.1 1.6 3.1 1.6 1 0 2.3 -0.7 3.1 -1.6z m652.3 -19.9 c1.7 -1.8 1.2 -4.1 -1.4 -5.5 -1.3 -0.7 -2.2 -0.5 -3.4 0.9 -1.9 2.1 -2 3.3 -0.4 4.9 1.6 1.6 3.3 1.5 5.2 -0.3z m-25.1 -21.3 c1.5 -1.6 1.5 -2 0.1 -4 -1.9 -2.7 -3.6 -2.8 -5.9 -0.2 -1.7 1.9 -1.7 2.1 0 4 2.2 2.5 3.7 2.5 5.8 0.2z m-550.6 -21.8 c1.2 -1.9 1.1 -2.4 -0.6 -4.5 -1.6 -1.9 -2.3 -2.2 -3.7 -1.3 -3.4 2 -4 4.1 -1.9 6.4 2.2 2.5 4.2 2.3 6.2 -0.6z m521.4 -0.6 c2 -3.7 -3.9 -7.6 -6.9 -4.6 -1.8 1.8 -1.4 4.5 0.9 6.2 2.5 1.7 4.5 1.2 6 -1.6z m-488.9 -17.5 c2.4 -2.2 2.3 -3.5 -0.7 -6.3 l-2.6 -2.4 -2.6 2.7 -2.7 2.6 2.4 2.6 c2.8 2.9 3.7 3.1 6.2 0.8z m455 0 c2.4 -2.2 2.3 -4.9 -0.4 -6.7 -1.9 -1.3 -2.5 -1.4 -4.3 -0.2 -2.7 1.8 -3.1 4.3 -0.9 6.7 2.1 2.3 3.2 2.4 5.6 0.2z m-421.3 -16.3 c3.7 -1.9 3.6 -6.1 -0.1 -8.1 -1.6 -0.9 -2.5 -0.6 -4.4 1.2 -2.9 2.7 -3 3.3 -0.4 5.9 2.3 2.3 2.5 2.3 4.9 1z m386.3 -0.7 c2.3 -2.1 2.3 -4.5 -0.2 -6.8 -1.8 -1.7 -2.1 -1.7 -4.5 -0.1 -3.1 2 -3.2 5 -0.3 7 2.8 2 2.7 2 5 -0.1z m-349.4 -13.9 c2.6 -1.8 2.8 -4.1 0.5 -6.6 -2.3 -2.5 -5 -2.3 -6.9 0.7 -1.6 2.5 -1.6 2.7 0.6 5 2.8 2.9 2.9 3 5.8 0.9z m313.4 -0.1 c2.2 -2 2.3 -4.1 0.1 -6.5 -2 -2.2 -4.1 -2.3 -6.5 -0.1 -2.3 2.1 -2.3 3.8 0.2 6.3 2.4 2.4 3.8 2.5 6.2 0.3z m-273.7 -13.4 c0.8 -2.4 -1.9 -5.9 -4.6 -5.9 -1 0 -2.6 1.2 -3.6 2.6 -1.7 2.6 -1.6 2.7 1.1 5 3.1 2.7 5.9 2 7.1 -1.7z m236.5 1.1 c1.6 -1.6 1.8 -2.5 1 -4 -1.8 -3.4 -4.4 -4.2 -6.9 -1.9 -2.5 2.4 -2.7 4.2 -0.5 6.3 2.1 2.1 4 2 6.4 -0.4z m-198.9 -7 c2.6 -1.4 2.4 -5.5 -0.3 -7.4 -4 -2.8 -9 2.2 -6.2 6.2 1.7 2.4 3.5 2.7 6.5 1.2z m159.3 -0.6 c0.9 -0.8 1.6 -2.3 1.6 -3.1 0 -2.1 -2.9 -5.3 -4.7 -5.3 -1.5 0 -5.3 3.5 -5.3 5 0 1.5 3.8 5 5.4 5 0.8 0 2.2 -0.7 3 -1.6z m-119.4 -5.4 c1.1 -1.1 2 -2.4 2 -3 0 -1.4 -3.7 -5 -5.2 -5 -1.7 0 -4.8 3.1 -4.8 4.8 0 2 2.9 5.2 4.7 5.2 0.7 0 2.2 -0.9 3.3 -2z m80 0 c1.1 -1.1 2 -2.5 2 -3.2 0 -1.7 -3.1 -4.8 -4.8 -4.8 -2 0 -5.2 2.9 -5.2 4.7 0 1.5 3.5 5.3 5 5.3 0.6 0 1.9 -0.9 3 -2z m-39.8 -1.7 c1 -0.9 1.8 -2.2 1.8 -3 0 -1.7 -3.6 -5.3 -5.5 -5.3 -1.4 0 -5.5 3.7 -5.5 5 0 1.3 4.2 5 5.7 5 0.9 0 2.5 -0.7 3.5 -1.7z"/>
  <path d="M670 530.2 c-6.3 -4.2 -14.1 -9.6 -17.3 -12 -8.9 -6.6 -8.7 -7.1 9.6 -36.2 15.2 -24.1 21.5 -33.4 32.8 -48.5 18.8 -25.1 36.6 -41.5 45.1 -41.5 3.8 0 3.8 0 3.8 4.2 0 3.3 -2.4 8.9 -11.9 27.9 -6.5 13 -15.1 32 -19.1 42 -7.5 19 -19.3 53.3 -22.5 65.2 l-1.8 6.7 -3.6 0 c-2.8 0 -6.1 -1.7 -15.1 -7.8z"/>
  <path d="M474 558.8 c0 -5.1 5.5 -21.6 9.5 -28.3 3.5 -6 10 -13.2 13.6 -15.1 3.7 -1.9 10.3 -1.8 11.9 0.1 0.9 1 1.1 4.3 0.8 10.7 -0.3 7.7 -0.9 10.3 -3.3 15.1 -5.3 10.8 -19.6 21.7 -28.5 21.7 l-4 0 0 -4.2z"/>
  <path d="M358 521.9 c0 -6.3 11.8 -43.8 20.5 -65.1 7.1 -17.4 13 -27.9 19.5 -34.8 2.2 -2.4 3.6 -3 6.9 -3 5.9 0 6.7 2.4 5.3 15.5 -2.4 22.1 -19.2 57.1 -40.3 84 -4.5 5.7 -5.5 6.5 -8.5 6.5 -3.1 0 -3.4 -0.2 -3.4 -3.1z"/>
  <path d="M900 557.9 c0 -3.6 5.8 -17.6 10.8 -26.2 6.6 -11.4 11.9 -15.7 19 -15.7 5.6 0 6.5 1.6 6 10.2 -0.5 9.6 -3.4 15.6 -11.6 23.6 -7.1 6.9 -15 11.2 -20.5 11.2 -3.5 0 -3.7 -0.2 -3.7 -3.1z"/>
 </g>
 <g fill="#f4b77a">
  <path d="M193.7 285.9 c-6.6 -1.6 -13.6 -5.8 -16.7 -10.1 -4 -5.5 -5.3 -10.8 -4.8 -19.8 0.6 -9.6 3.3 -15.4 11.2 -23.8 6 -6.4 6.1 -6.6 5.8 -11.7 -0.8 -11.3 3.8 -18.7 15.6 -24.8 9.9 -5.2 18 -7 27.4 -6.2 7.1 0.6 8 0.5 12.7 -2 5.5 -3 9.7 -8.5 11.6 -15 l1.2 -4 6.4 -0.3 c3.5 -0.1 11.4 0.1 17.5 0.6 9 0.7 12.3 1.4 16.7 3.6 8.1 3.9 14.9 10.5 18.3 17.6 2.8 5.9 2.9 6 6.9 6 4.4 0 13.1 4 18.9 8.6 2.8 2.3 3.6 3.6 3.6 6.2 0 1.7 -0.4 3.2 -0.9 3.2 -0.4 0 -1.1 2.9 -1.4 6.4 -1.3 13.5 -9.2 22.8 -27.3 32 -6.7 3.4 -21.7 8.5 -29.4 10 -11.4 2.3 -29.1 10.1 -31 13.6 -0.6 1.1 -2.1 2 -3.3 2 -1.2 0 -6.4 1.1 -11.5 2.5 -5.1 1.4 -11.1 2.5 -13.2 2.5 -2.1 0 -4 0.4 -4.2 1 -0.8 2.5 -21.7 3.9 -30.1 1.9z m79.8 -45.9 c13.3 -4.8 24.1 -10.7 30.4 -16.7 5.4 -5 5.5 -5.2 2.9 -5.3 -2.3 0 -2.8 -0.4 -2.8 -2.5 0 -3.7 -3.4 -3.2 -6.6 1 -4.2 5.6 -11.5 10.3 -30.8 20 -16.3 8.1 -18.1 9.3 -18.4 11.7 l-0.3 2.7 8.3 -3.8 c4.6 -2.1 12.4 -5.3 17.3 -7.1z m-45.5 6.5 c1 -1.2 1 -1.5 -0.3 -1.5 -0.8 0 -1.7 0.7 -2.1 1.5 -0.3 0.8 -0.2 1.5 0.3 1.5 0.5 0 1.4 -0.7 2.1 -1.5z"/>
  <path d="M670.3 257.9 c-4.1 -2.7 -6.3 -4.7 -6.3 -6 0 -1.5 -0.7 -1.9 -3.3 -1.9 -3.1 0 -22.7 -11.1 -46.9 -26.6 -11.2 -7.1 -11.1 -7.4 3.9 -29.9 l11.8 -17.5 4.6 0 c4.1 0 6.4 1.1 20.5 9.8 33.1 20.5 34.4 21.4 34.4 23.9 0 2 0.5 2.3 3.6 2.3 2.3 0 5.6 1.2 9 3.3 7.6 4.5 7.4 6.3 -2.2 20.7 -4.2 6.3 -9.4 14.8 -11.6 18.8 -3.8 6.9 -4.1 7.2 -7.6 7.1 -2.5 0 -5.7 -1.3 -9.9 -4z"/>
 </g>
 <g fill="#d9965e">
  <path d="M101 671 c0 -3.1 24 -13.5 45.3 -19.6 30.9 -8.9 54.4 -12.2 92.7 -13.1 36.6 -0.8 57.6 1.3 102 10.3 35.5 7.2 33.2 8.2 -8.5 3.5 -60.2 -6.8 -107.5 -6.7 -152.5 0.4 -23.9 3.8 -53.9 11.2 -72.9 17.9 -5.1 1.9 -6.1 2 -6.1 0.6z"/>
  <path d="M261.8 279.7 c-12.2 -2.1 -15.7 -3.7 -10.7 -5 1.2 -0.3 1.8 -1 1.5 -1.5 -1.3 -2.1 20.4 -11.6 31.4 -13.8 7.7 -1.5 22.7 -6.6 29.4 -10 18.7 -9.5 26.8 -19.3 27 -32.5 0.1 -5.4 0.4 -6.6 1.6 -6.2 0.8 0.3 0.4 -0.5 -1 -1.7 l-2.5 -2.2 3.9 0.6 c4 0.5 5.3 1.7 8.9 8.1 3.2 5.8 3.2 20.1 0 26.1 -3 5.5 -9.7 11.3 -19.9 17 -7.4 4.2 -8.9 5.5 -12.4 11.1 -3.4 5.4 -4.9 6.8 -9.7 9.1 -5.4 2.5 -6.8 2.7 -20.3 2.9 -10.8 0.1 -17.7 -0.4 -27.2 -2z"/>
  <path d="M193.5 268.6 c-5.3 -5.3 -5.7 -17.7 -0.9 -27.2 1.5 -3 5.7 -8.2 9.5 -11.9 7.8 -7.6 18.4 -13.1 41.4 -21.4 17.2 -6.3 21.9 -8.4 26.9 -12.4 4.2 -3.3 7.5 -9.5 7.6 -14 0 -3.9 -2.9 -9.9 -5.2 -10.5 -1 -0.2 -1.8 -1.1 -1.8 -1.8 0 -1.1 1.9 -1.4 8 -1.4 7.3 0 8 0.2 8 2 0 1.5 -0.7 2 -2.9 2 -2.9 0 -3 0 -1.5 2.8 3.4 6.5 1 17.7 -5.2 23.9 -5.3 5.3 -10.6 8 -29.7 14.9 -31.4 11.6 -44.1 19.7 -49.9 31.9 -3.2 7 -3.8 15.9 -1.3 21.9 1.8 4.2 0.5 4.7 -3 1.2z"/>
  <path d="M292 254.2 c0 -0.5 1.6 -1.3 3.5 -1.9 3.6 -1.1 4.4 -0.6 2.3 1.5 -1.4 1.4 -5.8 1.6 -5.8 0.4z"/>
  <path d="M242.9 251.6 l2.3 -2.4 -4.3 0.5 c-3 0.4 -4 0.3 -3.5 -0.6 1.6 -2.5 13.7 -9.7 26.5 -15.9 7.5 -3.6 16.1 -8 19.1 -10 6.2 -3.9 16 -13.6 16 -15.8 0 -0.8 0.9 -1.4 2 -1.4 1.3 0 2 0.7 2 2 0 3 3.4 2.5 5.9 -0.7 l2 -2.8 0.1 2.6 c0 1.5 -0.9 3.8 -2.1 5.3 -1.1 1.4 -1.6 2.6 -1.1 2.6 1.5 0 4.9 -5.9 5.7 -9.7 0.3 -1.8 1.1 -3.3 1.6 -3.3 0.5 0 0.9 -0.7 0.9 -1.5 0 -2.2 2.8 -1.8 3.5 0.5 0.7 2.2 -0.2 7.7 -1.6 9.4 -0.5 0.6 -3 3.9 -5.5 7.4 -8 10.9 -14.7 15.1 -35.9 22.9 -6.6 2.4 -16.1 6.4 -21.1 8.8 -4.9 2.5 -10.3 4.5 -11.9 4.5 l-2.8 0 2.2 -2.4z"/>
  <path d="M281 199.2 c0 -0.5 0.6 -1.7 1.4 -2.8 1.9 -2.5 3.1 -1.2 1.4 1.5 -1.3 2.1 -2.8 2.8 -2.8 1.3z"/>
 </g>
 <g fill="#d3854c">
  <path d="M246.5 375 c-5.8 -0.6 -8.3 -1.3 -9.5 -2.6 -1.1 -1.4 -2.6 -1.8 -5.2 -1.6 -4.1 0.4 -10.1 -2.3 -13.4 -6 -2.9 -3.1 -10.3 -16.7 -21.3 -38.7 -7.9 -15.6 -9.2 -18.9 -8.9 -22.4 l0.3 -4.2 5 -0.3 c4.3 -0.2 5.7 0.2 9.1 2.6 4 2.9 4 2.9 5 0.8 0.7 -1.7 1.9 -2.2 6 -2.4 2.8 -0.2 6.9 0.3 9.2 1.1 3.9 1.4 4.1 1.3 4.4 -0.7 0.3 -1.9 1 -2.1 7.9 -2.4 7 -0.3 7.9 0 10.7 2.3 2.8 2.4 3 2.4 3.5 0.5 0.9 -3.6 10.8 -5.3 18.4 -3.1 2.8 0.8 3.2 0.7 3.5 -1.2 0.5 -3.4 4.5 -4.8 11.8 -4.4 3.6 0.2 7.3 0.7 8.3 1.2 1.3 0.5 1.7 0.2 1.7 -1.4 0 -1.2 1.2 -3.4 2.6 -4.8 2.4 -2.4 3 -2.5 9 -2 3.5 0.4 7.3 1.1 8.4 1.7 1.7 0.9 2 0.8 2 -0.8 0 -1 1.4 -3.1 3.1 -4.8 2.8 -2.7 3.6 -2.9 10.4 -2.9 7.3 0 7.5 0 8.1 -2.8 0.9 -4.2 4.5 -6 10.5 -5.5 2.8 0.3 5.5 1.2 6 1.9 0.6 1 0.9 0.5 0.9 -1.6 0 -1.7 0.5 -3.6 1.2 -4.3 1.7 -1.7 12.8 -1.6 12.8 0.1 0 0.7 -0.7 8.9 -1.4 18.2 -0.8 9.4 -2 25.7 -2.7 36.3 l-1.2 19.2 -3.3 0 c-3 0 -3.3 0.3 -3.9 4.3 -1 5.7 -2.9 7.7 -7.7 7.7 -3.4 0 -3.8 0.3 -3.8 2.5 0 3 -6.1 6.5 -11.3 6.5 -2.5 0 -3.6 0.5 -4 1.9 -0.5 2.2 -8.4 5.1 -13.8 5.1 -2.1 0 -3.9 0.6 -4.2 1.3 -0.6 1.6 -9.3 3.7 -15.2 3.7 -2.6 0 -4.5 0.5 -4.7 1.3 -0.5 1.5 -31.6 2 -44.3 0.7z m109.2 -56.7 c-0.2 -2.1 -0.4 -0.4 -0.4 3.7 0 4.1 0.2 5.8 0.4 3.8 0.2 -2.1 0.2 -5.5 0 -7.5z"/>
  <path d="M218 283 c0 -0.5 0.6 -1 1.4 -1 0.8 0 1.7 -1.5 2.1 -3.7 1.6 -9.2 8.1 -17.5 19.1 -24.9 9.3 -6.2 16.9 -9.8 33.3 -15.8 17.3 -6.4 23.8 -10 30.6 -17.1 3.3 -3.4 6.9 -7.8 8 -9.8 1.1 -2.1 2.5 -3.7 3.2 -3.7 1 0 1.2 -1.1 0.7 -4 -0.6 -3.7 -0.5 -4 1.6 -4 2.2 0 2.2 0.3 1.7 5.2 -1.9 16 -16.6 29.2 -43.2 38.8 -26.3 9.5 -39.5 18.1 -46.5 30.3 -3.5 6.2 -3.6 6.7 -1 6.7 1.8 0 1.9 0.3 1 2 -0.9 1.6 -2.1 2 -6.5 2 -3 0 -5.5 -0.4 -5.5 -1z"/>
  <path d="M307.8 210.1 c1.7 -2.4 2.8 -3.3 3 -2.4 0.5 1.9 -2.5 6.3 -4.3 6.3 -1.1 0 -0.7 -1 1.3 -3.9z"/>
  <path d="M514.3 192.4 c-12.2 -9.2 -21 -19.8 -28.2 -34.1 -8.1 -16.3 -12 -31.2 -12.8 -50 l-0.6 -12.3 4.6 0 c3.4 0 5.9 0.8 9.6 3.1 8 5 16.5 6.9 38.4 8.4 27.8 2.1 46.7 6.2 54.2 11.9 6.4 4.9 8.5 14.9 4.3 20.8 -2.1 3.1 -2.1 3.1 -9.7 2.5 -4.2 -0.3 -8.5 -0.9 -9.6 -1.2 -1.1 -0.3 -2.6 -0.1 -3.4 0.4 -1.2 0.8 -0.9 2.1 1.8 8.1 3 6.4 3.3 7.8 2.9 14.5 -0.3 6.6 -0.7 7.8 -3.3 10.6 -5.1 5.3 -11.8 7.9 -21 7.9 -4.4 0 -9.5 -0.4 -11.3 -0.9 -3 -0.9 -3.2 -0.8 -3.2 1.5 0 1.3 -0.4 2.4 -1 2.4 -0.5 0 -0.7 2.1 -0.3 5 l0.6 5 -3.6 0 c-2.5 0 -4.9 -1 -8.4 -3.6z"/>
 </g>
 <g fill="#f86248">
  <path d="M528.5 940.6 c-4.2 -1.8 -8.3 -6.9 -9.1 -11.2 -1.1 -5.9 0 -15.2 2.2 -18.1 4.3 -5.8 6.8 -6.8 16.4 -6.8 10.4 0 13.1 1.4 16.8 8.6 2 3.7 2.3 5.5 1.9 11.7 -0.4 7.8 -1.8 10.7 -7.1 14.6 -3.5 2.6 -16.4 3.4 -21.1 1.2z"/>
  <path d="M476.9 935.7 c-1.8 -1.2 -4.4 -3.8 -5.7 -5.7 -2.1 -3.1 -2.3 -4.4 -2 -11.2 0.3 -8.5 1.9 -11.5 7.8 -15.5 2.7 -1.9 4.7 -2.3 11 -2.3 9.3 0 13.3 2.1 16.8 9 3.3 6.3 2.7 16.3 -1.2 21.5 -3.9 5.1 -7.3 6.5 -15.9 6.5 -6 0 -8 -0.4 -10.8 -2.3z"/>
  <path d="M658.2 905.4 c-1.8 -1.3 -2.2 -2.5 -2.2 -7.4 0 -7.3 1.9 -9 9.6 -9 6.6 0 7.9 1.5 7.9 9.2 0 4.7 -0.4 6.3 -1.9 7.4 -2.6 1.9 -10.6 1.8 -13.4 -0.2z"/>
  <path d="M356.2 902.8 c-1.8 -1.8 -1.5 -12.3 0.4 -14.2 2.1 -2.2 11.7 -2.2 13.4 -0.1 0.7 0.9 1.5 3.8 1.8 6.6 0.7 7 -1.2 8.9 -8.8 8.9 -3.1 0 -6.1 -0.5 -6.8 -1.2z"/>
  <path d="M504.5 897.6 c-4.2 -1.8 -8.3 -6.9 -9.1 -11.2 -1.1 -5.9 0 -15.2 2.2 -18.2 7.1 -9.7 25.5 -9.3 32.2 0.8 2.1 3.1 2.3 4.4 2 12 -0.3 9.5 -2.1 12.9 -8.1 16.2 -3.9 2.1 -14.8 2.3 -19.2 0.4z"/>
  <path d="M620.7 859.2 c-1.9 -2.1 -2.3 -10.2 -0.7 -13.3 0.9 -1.6 2.2 -1.9 7.5 -1.9 5.5 0 6.6 0.3 7.9 2.2 2.3 3.3 2.1 10.3 -0.4 12.8 -2.7 2.7 -11.9 2.8 -14.3 0.2z"/>
  <path d="M390.6 855.4 c-2.3 -2.3 -2.2 -11.6 0.2 -13.7 2.2 -2 12.2 -2.3 14 -0.5 0.7 0.7 1.2 3.9 1.2 7.3 0 3.4 -0.5 6.6 -1.2 7.3 -1.8 1.8 -12.3 1.5 -14.2 -0.4z"/>
  <path d="M478 653.3 c-4.9 -0.8 -12.6 -3.6 -18.3 -6.6 -5.7 -3 -5.8 -3.1 -5.5 -7.1 l0.3 -4.1 5 0.1 c2.8 0 7.9 0.8 11.5 1.8 11.3 3.2 26 0.3 44.5 -8.9 31 -15.3 65.6 -51.2 102.5 -106.4 9.4 -14.1 9.5 -12.7 -1 -18.1 -11.3 -5.7 -18 -7.3 -28.7 -6.8 -12.5 0.5 -19.2 3.5 -26.7 12 -4.6 5.3 -5.4 5.8 -9.1 5.8 -2.3 0 -4.6 -0.5 -5.3 -1.2 -1.7 -1.7 -1.5 -15.2 0.2 -18.6 8 -15.3 41.1 -17.6 68 -4.7 3.9 1.8 9.4 4.7 12.1 6.4 l5.1 3 4.4 -6.6 c49.9 -74.2 77.9 -104.5 103.4 -111.8 8.4 -2.4 16.8 -1.7 20.3 1.7 2.2 2.2 2.7 3.8 3.1 10 0.6 9.6 -0.7 14.4 -11.2 41 -17.9 45.6 -38.5 108.2 -36.3 110.4 0.3 0.4 2.6 0.1 5.1 -0.5 2.5 -0.6 5.9 -1.1 7.6 -1.1 3 0 3.1 0.1 2.8 4.2 -0.3 3.6 -0.8 4.5 -3.3 5.7 -1.6 0.8 -5.8 1.7 -9.2 1.9 -7.2 0.5 -6.5 -0.7 -9.2 14.7 -3.1 17.7 -3.5 27.6 -1.7 38.5 2.2 12.6 5.6 19.9 12.1 25.8 7.6 7 15.4 8.8 24 5.7 2.2 -0.8 5.9 -1.5 8.3 -1.5 4.1 0 4.2 0 4.2 3.5 0 3.2 -0.4 3.7 -5 6 -7.6 3.8 -15.4 5.5 -26.1 5.5 -26.1 0 -40.7 -13 -46 -40.7 -1.7 -9.2 -0.6 -43.2 1.9 -55.1 l1.9 -9.2 -3.6 -2.2 c-8.7 -5.1 -17.3 -10.8 -26.9 -17.6 -5.7 -4.1 -10.7 -7 -11.2 -6.6 -0.4 0.5 -6.5 10 -13.5 21.2 -42.1 67.2 -78.8 101.6 -116.8 109.7 -6.3 1.4 -27.3 1.9 -33.7 0.8z m214 -134.3 c12.1 -39.7 28 -79.3 44.6 -110.6 3.5 -6.6 6.4 -12.6 6.4 -13.2 0 -4.6 -11.4 3 -24.5 16.2 -16.4 16.5 -34.5 41.1 -56.3 76.8 -7.3 11.9 -13.2 22 -13.2 22.4 0.1 1.3 15.2 12.4 27.2 20 l10.3 6.5 1.1 -3.8 c0.7 -2.1 2.6 -8.5 4.4 -14.3z"/>
  <path d="M898.1 609.9 c-9.2 -1.8 -17.4 -8.8 -20.7 -17.5 -0.9 -2.7 -1.9 -5.1 -2.1 -5.3 -0.1 -0.2 -4.3 3.5 -9.2 8.2 -5.9 5.6 -11.3 9.6 -15.5 11.7 -6.1 3 -6.9 3.2 -16.1 2.8 l-9.7 -0.3 -3.3 -3.7 c-1.8 -2 -3.8 -5.3 -4.4 -7.5 -1.6 -5.6 -1.3 -23.6 0.5 -34.4 2.1 -12.2 8.8 -35.5 15.7 -54.4 3 -8.2 5.3 -15.1 5.2 -15.3 -1.1 -1.3 -26 -4.2 -35.7 -4.2 l-11.8 0 0 -3.3 c0 -1.8 0.5 -3.8 1.2 -4.5 1.8 -1.8 24 -1.4 38.7 0.7 11.1 1.6 12.4 1.6 12.8 0.2 4.6 -13.7 18.5 -41.2 22.4 -44.6 2.6 -2.1 4 -2.5 9.8 -2.5 9 0 10.5 1.5 9.9 9.7 -0.4 4.6 -2.2 9.6 -8.8 23.6 -4.5 9.8 -8 18 -7.8 18.2 0.2 0.2 5.7 1 12.1 1.6 26.6 2.7 60.5 -3.4 77.7 -14 7.2 -4.4 11.7 -6.1 16.4 -6.1 6.5 0 7.8 1.5 7.4 8.5 -0.3 5.9 -0.3 6 -5 8.8 -5.8 3.6 -28.7 8.9 -47.8 11.1 -14 1.7 -43.4 2 -57.4 0.7 l-7.9 -0.7 -2.4 5.5 c-3.8 8.5 -14.9 42.2 -18.2 55.1 -3.9 15.3 -6.3 30.2 -5.5 33.7 0.8 3.2 3.2 6.3 4.9 6.3 3.4 0 10.7 -4.6 16.1 -10.2 14.4 -15 15 -15.9 15.7 -24 1.8 -21.2 15.7 -43.3 33 -52.4 6.8 -3.6 7.8 -3.8 18.4 -4.2 10.3 -0.4 11.4 -0.3 14.2 1.8 5.2 3.7 6.3 7 5.9 17.9 -0.5 12.1 -2.7 17.2 -11.4 25.8 -7.2 7 -20.9 14.5 -30.6 16.5 -6.5 1.3 -7 2.4 -5.7 10.9 2.2 14.2 13.8 21.8 26.5 17.5 2.6 -0.9 6.9 -1.6 9.6 -1.6 4.8 0 4.8 0 4.8 3.3 0 4.4 -2.2 6.3 -9.6 8.3 -12.3 3.4 -22.9 4.2 -32.3 2.3z m10.6 -53 c15.6 -7.4 30 -28.6 24.9 -36.4 -2.8 -4.3 -6.2 -3.3 -13.1 3.8 -4.8 4.9 -7.4 8.8 -12.2 18.7 -6.3 12.7 -8 17 -6.8 17 0.4 0 3.6 -1.4 7.2 -3.1z"/>
  <path d="M738.7 609.3 c-2 -1.9 -0.4 -12.7 4.3 -29.2 8.1 -28.8 9.4 -35.7 9.2 -50.8 -0.1 -12.1 0.1 -13.4 1.8 -14.3 2.4 -1.3 13.6 -1.3 16 0 2.4 1.3 4 6.9 4 13.9 l0 5.4 3.1 -4.3 c4.9 -6.7 11.6 -13 16.2 -15 5.2 -2.4 14.6 -2.6 18.7 -0.5 3.7 1.9 4.3 4.4 3.8 15.3 -0.3 6.9 -0.9 9.7 -2.9 13.2 -2.3 4.3 -2.7 4.5 -7.3 4.8 -6 0.4 -6.6 -0.3 -6.6 -8.9 0 -8.4 -1.7 -10.4 -5.6 -6.8 -7.6 7 -18 25.8 -30.8 55.7 -10 23.2 -9.2 22.2 -17 22.2 -3.4 0 -6.6 -0.3 -6.9 -0.7z"/>
  <path d="M514.2 461.3 c-19.5 -20.7 -24.8 -40.1 -12.9 -47.3 3.8 -2.4 10.6 -2.6 14.6 -0.6 3.2 1.7 9.1 8 9.1 9.9 0.1 0.7 1.5 -0.4 3.3 -2.5 4.5 -5.2 9.4 -7.8 14.5 -7.8 8.5 0 13.2 4.8 13.2 13.5 0 5.6 -2.7 11.5 -8.2 17.8 -5.3 6.2 -24.6 23.7 -26.1 23.7 -0.7 0 -4 -3 -7.5 -6.7z"/>
  <path d="M788 224.4 c0 -3.5 -3.5 -12.5 -5.9 -15.4 -1.4 -1.7 -5.2 -4.1 -8.4 -5.4 -6.4 -2.6 -6.3 -3.1 1.5 -6 5.7 -2.1 9.5 -6.3 11 -12.2 1.6 -5.9 3.8 -5.8 6.1 0.5 2.4 6.9 5.8 9.8 14.6 12.5 l7.6 2.3 -6.3 1.8 c-9.1 2.6 -13.6 6.2 -16.1 13 -1.2 3.1 -2.1 6.4 -2.1 7.5 0 1 -0.4 2.2 -1 2.5 -0.5 0.3 -1 -0.2 -1 -1.1z"/>
  <path d="M723.7 205.7 c-0.3 -2.4 -1.8 -8 -3.2 -12.6 -4.2 -13.2 -11 -19.2 -26.3 -23 -9.7 -2.5 -9.2 -3.3 4.8 -7.5 5.3 -1.6 9.9 -3.7 12.2 -5.6 4.3 -3.6 9.2 -12.9 10.8 -20.5 0.9 -4.2 1.6 -5.5 2.9 -5.5 1.3 0 2.2 1.6 3.5 6.1 4.1 14.7 10.1 21.4 22.8 25.4 4.3 1.4 9.6 2.8 11.8 3.1 4.2 0.7 5.5 2.4 1.9 2.4 -8.2 0 -25.5 7.4 -30 12.9 -3.1 3.8 -7.5 15.7 -8.5 23.4 -0.9 6.2 -2 6.8 -2.7 1.4z"/>
  <path d="M226 189.1 c-8.1 -2.5 -16.1 -8.4 -19 -14.2 -3 -5.7 -2.7 -14.9 0.4 -18.6 2.3 -2.6 2.9 -2.8 10.4 -2.8 6.7 0 8.5 0.4 11 2.2 l3 2.2 0.7 -4 c1.1 -6.3 5 -10.1 11.1 -10.6 6.2 -0.5 11 1.8 13.9 6.7 1.6 2.8 2 5.2 1.9 12.5 0 13.5 -3.9 22.6 -10.9 25.9 -3.5 1.7 -17.8 2.1 -22.5 0.7z"/>
 </g>
 <g fill="#a56131">
  <path d="M378.4 935.9 c-2.8 -0.4 -6.8 -1.4 -9 -2.1 -3.4 -1.1 -3.9 -1.7 -4.2 -4.7 -0.7 -6.6 11.6 -21.4 23.3 -28.2 9.6 -5.6 19.6 -8.1 34.3 -8.7 11.7 -0.4 13.2 -0.3 13.2 1.2 0 1.3 0.9 1.5 6 0.9 l6 -0.6 0 3.8 c0 3.2 -1.1 4.9 -8.1 13.1 -9.4 10.9 -15.9 16.1 -25 20.4 -11.4 5.3 -24 7 -36.5 4.9z"/>
  <path d="M629.5 936.3 c-14 -1.7 -26.8 -8.6 -38.1 -20.4 -10.1 -10.7 -11.4 -12.7 -11.4 -16.9 l0 -4 5.5 0 c5 0 5.5 -0.2 5.5 -2.2 0 -2.1 0.2 -2.1 10.8 -1.5 13.8 0.9 21.8 2.8 31.9 7.8 17.3 8.5 33 29.8 25.2 34 -5 2.6 -20.5 4.3 -29.4 3.2z"/>
  <path d="M445.4 877 c-10.4 -7.1 -20.3 -18.3 -25.2 -28.2 -5 -10.3 -6.2 -16 -6.2 -29.8 l0 -11 3.6 0 c5.5 0 20.9 8 28.2 14.6 10.5 9.4 15 19.7 17.7 40.6 2.2 16.3 2.1 16.8 -1.5 16.8 -1.6 0 -3 0.5 -3 1 0 0.6 -1.5 1 -3.2 0.9 -2.2 0 -5.6 -1.6 -10.4 -4.9z"/>
  <path d="M568 880 c0 -0.5 -1.4 -1 -3.1 -1 l-3.2 0 0.8 -12.1 c1.6 -27.1 10.5 -42.8 30.2 -53.2 6 -3.1 8.1 -3.7 13.3 -3.7 l6.3 0 -0.5 12.8 c-0.6 14.1 -2.6 21.3 -8.9 31.8 -6.8 11.2 -24.8 26.4 -31.3 26.4 -2 0 -3.6 -0.4 -3.6 -1z"/>
  <path d="M298 850.4 c-10.9 -2.3 -21.9 -8.4 -28.8 -15.9 -7 -7.7 -12.2 -16.9 -12.2 -21.8 0 -3.1 0.3 -3.5 3.1 -4.1 10 -2 29.1 0.2 38.6 4.4 11.7 5.2 23.3 18.2 23.3 26.1 0 2.6 0.5 4.2 1.5 4.5 1 0.4 1.5 2 1.5 4.5 l0 3.9 -10.2 -0.1 c-5.7 0 -13.2 -0.7 -16.8 -1.5z"/>
  <path d="M701 848.1 c0 -2.5 0.5 -4.1 1.5 -4.5 1 -0.3 1.5 -1.9 1.5 -4.2 0 -8.4 13.3 -22.8 25.4 -27.3 9 -3.3 26.3 -5 35.9 -3.5 3.5 0.6 3.7 0.9 3.7 4.2 0 5.1 -6.2 15.5 -13.6 23 -10.8 10.8 -25.5 16.1 -44.6 16.2 l-9.8 0 0 -3.9z"/>
  <path d="M322.6 212.4 c-1.1 -3 3.3 -6 4.9 -3.4 1.1 1.7 -0.5 5 -2.5 5 -1 0 -2.1 -0.7 -2.4 -1.6z"/>
  <path d="M317.8 202.6 c-1 -0.7 -1.8 -2.1 -1.8 -3 0 -1 -0.5 -2.6 -1 -3.7 -1 -1.7 -0.7 -1.9 2.2 -1.9 5.2 0 7.8 1.1 7.8 3.1 0 1.3 -0.7 1.9 -2.4 1.9 -1.9 0 -2.5 0.6 -2.8 2.4 -0.3 2.2 -0.5 2.3 -2 1.2z"/>
  <path d="M527.5 200.8 c-5.3 -2.7 -8.5 -5.7 -8.5 -8 0 -1.5 0.4 -1.7 1.8 -0.9 1.5 0.8 1.7 0.4 1.4 -4.6 -0.3 -4.4 -0.1 -5.4 1 -4.7 0.7 0.4 0.4 -0.2 -0.6 -1.4 l-1.9 -2.2 3.5 0 c3.9 0 5.8 1.7 10.7 9.4 2.4 3.8 3.1 6.2 3.1 9.8 0 4.8 0 4.8 -3.2 4.8 -1.8 -0.1 -5.1 -1 -7.3 -2.2z"/>
  <path d="M619 182.1 c-0.5 -1.1 -1 -3.3 -1 -4.9 0 -3.4 3 -5.2 8.5 -5.2 3.2 0 3.5 0.3 3.5 2.9 0 1.6 -0.8 4.3 -1.7 6 -1.4 2.4 -2.5 3.1 -5 3.1 -2.2 0 -3.6 -0.6 -4.3 -1.9z"/>
 </g>
 <g fill="#975426">
  <path d="M302.5 895.5 c-0.5 -0.2 -2.2 -0.6 -3.7 -0.9 -2.4 -0.6 -2.8 -1.1 -2.8 -4.2 0 -2 0.9 -4.7 2.3 -6.5 3.8 -5.2 13.4 -11.7 20.4 -13.9 7.8 -2.4 23.7 -3.6 34.6 -2.6 l7.7 0.8 0 3.1 c0 2.8 -1 3.9 -7.3 8.5 -3.9 2.9 -9.2 6.8 -11.7 8.7 -6.9 5.3 -15.1 7.5 -27.9 7.4 -5.8 0 -11 -0.2 -11.6 -0.4z"/>
  <path d="M696 894.5 c-4.9 -1.6 -8.9 -4 -20.9 -13 -7.3 -5.5 -8 -6.3 -8 -9.6 l-0.1 -3.7 9.3 -0.6 c10.9 -0.8 25.1 0.6 33.1 3.4 11 3.8 20.6 12.8 20.6 19.4 0 3.2 -0.3 3.6 -3.7 4.5 -5.4 1.5 -24.9 1.2 -30.3 -0.4z"/>
  <path d="M364.6 861.5 c-14.1 -9.8 -22 -19.5 -25.7 -31.5 -1.5 -5.2 -1.9 -8.8 -1.7 -17.1 l0.3 -10.4 3.3 -0.3 c6.6 -0.7 21.8 11.3 26.9 21.2 3.9 7.6 5.1 11.8 7.3 24.8 2.8 16.8 2.8 16.8 -1.7 16.7 -2.6 0 -5.3 -1.1 -8.7 -3.4z"/>
  <path d="M649 862.5 c0 -5.4 4.1 -27.7 6 -32.8 3.4 -9.2 10.3 -17.2 20.5 -24 2.9 -2 5.2 -2.7 8.7 -2.7 l4.8 0 0 9.8 c0 20.7 -6.6 33.3 -24.4 46.4 -6.4 4.7 -8.7 5.8 -11.8 5.8 -3.4 0 -3.8 -0.3 -3.8 -2.5z"/>
  <path d="M904 382.1 c-14.6 -5.3 -24.3 -9.8 -56.5 -25.8 -48.6 -24.4 -117.7 -62.3 -153.7 -84.5 -9.8 -6 -9.8 -6 -9.8 -10 0 -4.8 4 -12.7 14.3 -28.3 9.8 -14.9 8.8 -14.9 30.5 -0.8 90.7 58.7 188.7 129.4 196.3 141.6 1.3 2.1 1.9 4.6 1.7 7.2 l-0.3 4 -6 0.2 c-4.8 0.2 -8.1 -0.5 -16.5 -3.6z"/>
  <path d="M572.5 213.4 c-8.8 -1.3 -19.8 -3.6 -26.1 -5.5 -7 -2.1 -7.2 -2.3 -7.9 -5.8 -0.3 -2 -2 -5.3 -3.6 -7.3 -2.1 -2.7 -2.9 -4.8 -2.9 -7.6 l0 -3.9 6.6 -0.6 c4.8 -0.3 8.6 -1.5 13.9 -4.1 4 -2 7.8 -3.6 8.4 -3.6 0.6 0 1.1 -1 1.1 -2.2 0.1 -1.3 0.7 -3.4 1.5 -4.8 2.2 -3.9 1.8 -7.2 -2 -14.6 -1.9 -3.8 -3.5 -8.2 -3.5 -9.8 l0 -2.9 8.3 0.5 c4.5 0.3 9 0.9 10 1.3 0.9 0.4 1.7 0.3 1.7 -0.3 0 -0.5 1.4 -2.5 3.1 -4.3 2.4 -2.6 2.9 -3.8 2.4 -5.8 -0.4 -1.4 -0.9 -4.5 -1.2 -6.8 -0.5 -4.3 -0.5 -4.3 2.7 -4.3 6 0 21.8 10.8 31 21.3 10.2 11.5 16 22.3 16 29.7 0 4.8 -0.1 5 -3.6 6.5 -4.8 2 -4.9 1.9 -3 -1 1.8 -2.7 1.2 -3.1 -1.9 -1.2 -1.5 0.9 -2.1 2.5 -2.4 6.7 -0.1 3 -0.7 5.7 -1.2 5.8 -0.5 0.2 -0.9 1.6 -0.9 3.1 0 3.1 -1.6 5.1 -4.2 5.1 -1.4 0 -1.8 0.8 -1.8 3.1 0 3.4 -4.5 11.4 -7 12.6 -1.7 0.7 -29.1 1.3 -33.5 0.7z"/>
 </g>
 <g fill="#673718">
  <path d="M494.5 1021.4 c-70 -4.3 -120.7 -15.2 -178.1 -38.5 -87.7 -35.5 -169.3 -101.1 -223.8 -179.9 -91.1 -131.7 -113.9 -297.2 -62.2 -451.5 15.2 -45.3 35.5 -86 62.2 -124.5 69.3 -100.2 167.6 -170 284.3 -202 63.6 -17.5 135.3 -22.4 202 -13.9 109.4 14 209.4 62.1 288.2 138.6 68.4 66.5 116.8 150.3 139.4 241.7 28.9 116.6 17 235.8 -34.2 343.6 -29.5 62 -74.9 120.5 -129 166.2 -68.5 57.9 -153.1 97.6 -240.4 112.9 -17.1 3 -22.9 3.7 -47.9 5.9 -13.3 1.1 -50.6 2 -60.5 1.4z m76.2 -19.3 c44.6 -5.8 84 -15.8 122.7 -31.1 35.2 -13.9 62.5 -28.2 94.6 -49.5 100.4 -66.7 171.6 -167.1 201.9 -284.6 11.3 -43.9 15.7 -82.6 14.8 -130.9 -0.5 -29.6 -1.9 -45.5 -6.3 -71.5 -18.7 -111.9 -73.5 -211.2 -158.5 -287.5 -60.3 -54.3 -142.6 -95.8 -222.4 -112.4 -65.7 -13.6 -123.3 -14.9 -187.5 -4 -80.2 13.5 -152.6 44.7 -217 93.5 -41 31 -80.6 73.5 -110.5 118.4 -44.4 66.8 -70.5 138.7 -80 220.5 -2.2 19 -3 63.6 -1.6 84.5 4.7 66 20.5 125.2 49.1 183.8 52 106.7 144.9 192.7 256.5 237.5 49 19.7 97 30.7 155.5 35.6 2.5 0.2 19.8 0.2 38.5 0.1 27.8 -0.2 36.9 -0.6 50.2 -2.4z"/>
  <path d="M507.6 986.8 c-4 -3.5 -4.3 -7.8 -1.1 -11.6 5.2 -6.2 14.5 -2.8 14.5 5.3 0 7.3 -8 11 -13.4 6.3z"/>
  <path d="M471.4 985.6 c-3.4 -2.8 -3.8 -8.4 -0.9 -11.6 2.8 -3.1 9.7 -2.8 12.4 0.6 3.4 4.3 2.1 10.2 -2.6 12.3 -3.6 1.7 -5.9 1.3 -8.9 -1.3z"/>
  <path d="M545.5 986.8 c-5.2 -2.8 -6.2 -9.2 -2 -13.3 5 -5.1 13.4 -1.3 13.4 6 0 3.4 -1.4 5.6 -4.6 7.3 -2.7 1.5 -4.2 1.5 -6.8 0z"/>
  <path d="M439.3 981.8 c-2.8 -1.3 -4.6 -5.8 -3.7 -9.2 1.4 -5.7 8.6 -7.4 12.9 -3.1 6.7 6.6 -0.7 16.4 -9.2 12.3z"/>
  <path d="M576.6 980.9 c-2 -1.6 -2.6 -2.9 -2.6 -5.9 0 -9.7 13.8 -10.9 15.6 -1.3 0.5 2.7 0.1 3.7 -2.4 6.3 -3.6 3.5 -6.9 3.8 -10.6 0.9z"/>
  <path d="M406.5 974.5 c-4.9 -4.8 -1.6 -12.5 5.3 -12.5 4.3 0 7.2 3 7.2 7.5 0 7 -7.6 10 -12.5 5z"/>
  <path d="M608.5 974.5 c-3 -3 -3.2 -6.4 -0.4 -9.9 4.3 -5.5 12.9 -2.3 12.9 4.9 0 7 -7.6 10 -12.5 5z"/>
  <path d="M376.5 967.5 c-2.9 -2.8 -3.2 -7 -0.9 -10.3 1.2 -1.7 2.5 -2.2 5.9 -2.2 5 0 7.5 2.4 7.5 7.3 0 3.5 -4 7.7 -7.5 7.7 -1.4 0 -3.7 -1.1 -5 -2.5z"/>
  <path d="M639.7 968 c-3.3 -2.6 -4.1 -6.3 -2.2 -10 1.4 -2.6 2.1 -3 5.9 -3 7.7 0 10.9 7.7 5.2 12.7 -3.3 2.8 -5.6 2.9 -8.9 0.3z"/>
  <path d="M347 958 c-2.6 -2.6 -2.6 -8.1 -0.2 -10.3 2.8 -2.6 9.7 -2.2 11.6 0.5 3.8 5.3 0.5 11.8 -5.9 11.8 -2.2 0 -4.3 -0.8 -5.5 -2z"/>
  <path d="M667.6 958.1 c-2.3 -2.5 -2.3 -7.6 -0.1 -10.1 2.1 -2.4 9.6 -2.8 11.4 -0.7 4.2 5.2 0.8 12.7 -5.8 12.7 -2.5 0 -4.4 -0.7 -5.5 -1.9z"/>
  <path d="M319 947 c-5.1 -5.1 -2.6 -12.2 4.4 -12.8 5 -0.4 7.6 1.9 7.6 6.8 0 6.8 -7.5 10.5 -12 6z"/>
  <path d="M696.9 946.1 c-3.4 -3.5 -3.6 -5.9 -0.8 -9.5 2.5 -3.2 8.6 -3.7 11.2 -0.8 2.7 3 2.2 8.7 -0.9 11.1 -3.6 2.8 -6 2.6 -9.5 -0.8z"/>
  <path d="M534 944.1 c-10.8 -2.2 -17 -10 -17 -21.3 0.1 -14.2 11.7 -23.1 26.5 -20.4 4.3 0.8 11.6 7.1 13.9 12 3.2 6.8 1.4 17.9 -3.7 23.4 -4.6 5 -13 7.6 -19.7 6.3z m10.3 -6.5 c7.7 -3.2 11.4 -12.3 8.2 -20.4 -4.4 -10.9 -17.3 -13.6 -25.6 -5.3 -12.4 12.3 1.3 32.5 17.4 25.7z"/>
  <path d="M480 938.9 c-8.1 -3.4 -12.9 -10.7 -13 -19.7 0 -12.1 8.5 -20.2 21.3 -20.2 11.6 0 19.5 7.4 20.4 19.3 0.4 5.2 0.1 6.9 -1.9 10.7 -1.4 2.5 -4.4 5.8 -6.7 7.5 -3.5 2.4 -5.3 3 -10.9 3.2 -3.7 0.2 -7.8 -0.2 -9.2 -0.8z m15 -5.4 c4.1 -2.1 7.8 -7.4 8.5 -12 0.8 -5.1 -2.6 -12 -7.4 -15.2 -9.5 -6.3 -22.7 0.6 -23.8 12.4 -0.4 3.9 0 5.5 1.9 8.3 5 7.4 13.8 10.1 20.8 6.5z"/>
  <path d="M376.1 937.6 c-2.9 -0.8 -7.5 -2.4 -10.2 -3.7 -4.1 -1.9 -4.8 -2.6 -4.3 -4.3 1.6 -4.9 9 -14.9 16.1 -21.6 11.5 -11 24.9 -16.5 44.8 -18.6 l6.9 -0.7 -14.4 -3.2 c-8 -1.8 -20.5 -5.1 -27.8 -7.4 -7.4 -2.3 -14.9 -4.1 -16.8 -4.1 -5.4 0 -11 2.8 -22.3 11.3 -12.5 9.4 -16.2 11.2 -26 12.8 -11.7 1.8 -31.1 -1.9 -31.1 -5.9 0 -2.2 7.2 -11.4 12.3 -15.6 8.9 -7.3 23 -11.5 38.5 -11.7 l7.7 0 -10.5 -5.3 -10.5 -5.3 -14.5 -0.6 c-16.1 -0.5 -24.3 -2.6 -34.8 -9 -10.8 -6.4 -24.9 -25.4 -25.5 -34.3 -0.3 -3.6 1.8 -4.2 16.4 -4.3 26.6 -0.2 42.9 9 53.6 30.6 4.6 9.1 5.1 9.7 11.3 13.4 6.8 4 33 16.2 33.6 15.6 0.2 -0.2 -2.5 -2.2 -5.9 -4.4 -8.2 -5.4 -19.5 -17.4 -22.9 -24.3 -5.4 -10.9 -7.1 -22.9 -4.7 -34 0.9 -4 1.5 -5 3.1 -5 3.6 0 13.8 6.2 20.9 12.8 10.6 9.8 14.8 18.1 17.5 34.9 1.8 11.5 4.5 19.8 7.6 23 4.5 4.8 42.7 14.5 66.3 16.8 l7 0.7 -6 -3.7 c-21.2 -12.9 -35 -30.4 -39 -49.1 -1.5 -7.1 -1.8 -22 -0.6 -26.4 1.1 -3.7 5.1 -3.1 17.4 2.8 16.9 8.2 28.2 20.3 32.8 35.1 1.1 3.6 2.9 12.2 3.9 19.1 1.1 6.9 2.6 14.9 3.5 17.7 1.6 5.4 2.1 5.8 8.5 6.5 1.7 0.2 2.5 0.9 2.5 2.3 0 1.8 -0.8 2 -10 2.5 -6.4 0.4 -11.1 1.1 -13 2.2 -1.6 0.9 -9 7.9 -16.3 15.7 -14.5 15.2 -22.5 21.2 -34.2 25.2 -8.1 2.7 -23.1 3.5 -30.9 1.5z m22.3 -5.1 c8.6 -1.8 18.4 -6.3 25.2 -11.6 5.2 -4 22 -22.6 21.2 -23.4 -0.7 -0.7 -14.1 3.3 -22.1 6.6 -3.9 1.6 -11.4 5.2 -16.5 7.9 -5.1 2.8 -9.8 5 -10.5 5 -0.6 -0.1 0.9 -2 3.5 -4.4 4.7 -4.3 16.7 -10.8 28.3 -15.3 l6 -2.4 -10.5 0.5 c-16.2 0.7 -30 5.8 -40.8 15.1 -4.9 4.2 -14.4 17.3 -13.6 18.6 0.8 1.4 14 4.5 20.4 4.8 1.4 0 5.6 -0.6 9.4 -1.4z m-70.3 -41.5 c3.5 -1.1 8 -3.3 10 -4.8 2 -1.5 7.3 -5.5 11.8 -8.9 l8.2 -6.1 -7.5 -0.7 c-16.6 -1.6 -31.7 1.7 -41.3 8.9 -5.8 4.4 -11 10.3 -9.9 11.3 2.7 2.7 20.4 2.9 28.7 0.3z m122 -21.1 c-3.3 -4.6 -7.8 -12 -10 -16.4 -7.3 -14.5 -6.5 -20.5 0.9 -6.8 3.8 7.1 14 22.3 19 28.3 l2.1 2.5 -0.6 -3.5 c-0.2 -1.9 -0.9 -7 -1.5 -11.4 -3.1 -23.8 -12.3 -37.2 -32.5 -47.1 -5.1 -2.5 -9.5 -4.5 -9.9 -4.5 -1 0 -0.7 15.5 0.5 21.2 2.9 14.4 15.5 31.7 30.3 41.8 3.9 2.6 7.2 4.7 7.4 4.5 0.2 -0.1 -2.4 -4 -5.7 -8.6z m-76.5 -9.6 c-0.3 -1 -1.2 -6.1 -2 -11.3 -2.4 -15.1 -6.4 -24.4 -13.8 -31.9 -4.7 -4.9 -15.7 -12.3 -17 -11.5 -0.4 0.3 -0.8 3.8 -0.8 7.9 0 17.7 8.7 31.9 27.6 45 5.6 3.9 6.7 4.2 6 1.8z m-51.6 -12.1 c0 -1.1 -16.9 -12.2 -26.4 -17.5 -8.4 -4.6 -11.2 -7.5 -6 -6.3 3.6 0.9 20.2 9 25 12.2 2 1.4 3.8 2.3 4 2.1 0.3 -0.2 -1.4 -3.2 -3.6 -6.5 -7.2 -10.8 -18.7 -17.7 -33.6 -20.3 -6.3 -1.1 -19.8 -0.8 -21 0.4 -1.2 1.2 6.1 13 11.8 19.2 9.9 10.8 25.6 17.2 42.6 17.4 3.9 0.1 7.2 -0.2 7.2 -0.7z"/>
  <path d="M624 937.4 c-14.8 -3.8 -28.2 -13.4 -42.7 -30.5 -9.4 -11.2 -13 -13.2 -25.7 -13.8 -7.9 -0.5 -10.1 -0.9 -10.1 -2.1 0 -0.8 1.5 -1.7 3.9 -2.2 2.2 -0.5 4.5 -1.3 5.1 -1.8 1.8 -1.5 3.4 -7.9 5.5 -22.3 3.4 -23.5 7.1 -31.9 18.8 -42.8 5.5 -5.2 10 -8.2 16.6 -11.4 10.2 -4.8 17.2 -7.2 18.4 -6.1 0.4 0.4 0.7 6.9 0.7 14.4 -0.1 12.2 -0.4 14.5 -2.7 21 -5.6 15.5 -18.2 30.7 -34.1 41 -3.9 2.5 -6.5 4.8 -5.8 5 4.4 1.5 50.1 -8.2 63.5 -13.4 6.4 -2.5 7 -3 9.2 -7.8 1.3 -2.8 3 -9.1 3.8 -14.1 2.4 -14 3.7 -18.6 6.6 -24.5 5.3 -10.4 12.9 -17.9 25.2 -24.9 7.5 -4.2 10 -3.9 11 1.4 2 11.5 -0.1 24.7 -5.5 34.9 -3.7 7 -12.8 17.2 -20.5 22.8 -9.6 7.1 -6.7 6.2 19.3 -6.2 11.2 -5.4 13 -7 17.7 -16.8 7.6 -16.1 22.4 -27.6 38.8 -30.2 7.1 -1.1 26.1 -1.3 29.8 -0.4 3.2 0.9 2.8 3.1 -2.5 13.6 -11.5 22.6 -31 33.8 -58.7 33.8 -11.1 0 -11.1 0 -20.2 4.4 -5.1 2.5 -9.4 4.9 -9.8 5.4 -0.3 0.5 3.9 1.1 10.2 1.5 14.3 0.7 23.9 4.1 33 11.4 4.9 4 12.2 13.3 12.2 15.5 0 3.9 -18.1 7.4 -30.2 5.8 -10 -1.2 -14.7 -3.4 -25.3 -11.9 -10.9 -8.6 -17.5 -12.1 -22.9 -12.1 -2.3 0 -9.3 1.6 -15.6 3.6 -6.3 1.9 -17.1 4.9 -24 6.6 -6.9 1.6 -12.8 3.3 -13.3 3.7 -0.4 0.4 2.7 1.3 6.9 1.9 21.7 3.4 37.7 13.7 49.3 31.7 2.8 4.4 5.1 8.6 5.1 9.3 0 0.7 -2.1 2.2 -4.7 3.3 -11.3 4.8 -25.5 6.1 -36.3 3.3z m25.6 -5.5 c9 -1.7 9.3 -2.5 3.8 -9.9 -12.7 -17.3 -28 -25.5 -51.6 -27.6 -8.5 -0.7 -10.2 0.4 -4 2.5 14.4 5 36.8 18.9 32 19.9 -1 0.2 -3 -0.5 -4.5 -1.6 -7.4 -5.2 -35.4 -17.2 -40.3 -17.2 -2.8 0 -2.5 1.3 1.2 5.7 14 16.7 24.9 24.6 38.8 28.1 8.8 2.3 13.6 2.3 24.6 0.1z m73.7 -40 c2 -0.5 3.7 -1.2 3.7 -1.5 0 -1.5 -5.8 -7.8 -10 -10.9 -6.2 -4.5 -14.2 -7.3 -24.6 -8.5 -8 -0.9 -22.5 -0.3 -22.3 0.9 0 0.7 13.7 11 20.2 15.4 2.3 1.5 6.2 3.4 8.7 4.2 5.4 1.6 19 1.9 24.3 0.4z m-145.5 -17.9 c19.7 -14.1 29.8 -30.8 30.9 -51.2 l0.6 -9.8 -3.3 0 c-4.7 0 -16.5 6.6 -23.6 13.2 -7.1 6.7 -11.5 14.3 -14.3 24.8 -2.1 8.2 -3.8 26.2 -2.3 24.5 3.5 -3.8 12.2 -16.2 16.5 -23.6 2.8 -4.9 5.7 -8.9 6.4 -8.9 1.8 0 1.6 1.2 -1.2 7.5 -2.1 4.8 -4.9 9.5 -15.2 25.2 -2.2 3.3 -1 2.9 5.5 -1.7z m83.8 -17.8 c9.2 -6.8 13.8 -11.7 18.2 -19.3 4 -7.1 6.2 -15.5 6.2 -24.1 0 -8 -1 -8.5 -7.5 -4.1 -14.9 9.9 -21 19.9 -24 39.1 -0.8 5.3 -1.8 10.7 -2 12 -0.3 1.2 -0.2 2.2 0.3 2.2 0.5 0 4.4 -2.6 8.8 -5.8z m62.9 -8.7 c16.2 -3.4 30 -13.5 37.8 -27.6 2 -3.6 3.7 -6.9 3.7 -7.2 0 -1.4 -11.5 -1.8 -19.5 -0.8 -16.4 2.2 -27.1 8.4 -35 20.1 -2.4 3.6 -4.2 6.6 -4 6.8 0.2 0.2 4.3 -2 9 -4.9 12.5 -7.5 23.5 -11.8 23.5 -9.1 0 0.5 -3.9 3 -8.7 5.6 -10.1 5.5 -27.3 16.7 -27.3 17.9 0 1.2 13.1 0.7 20.5 -0.8z"/>
  <path d="M291.7 934.8 c-2.1 -1.7 -3.8 -6.3 -3 -8.5 1.2 -3.6 3.6 -5.3 7.3 -5.3 6 0 9.3 5.5 6.6 10.8 -2.2 4.3 -7.3 5.6 -10.9 3z"/>
  <path d="M724.5 933.5 c-5 -4.9 -1.9 -12.5 5 -12.5 7.2 0 10.4 8.6 4.9 12.9 -3.5 2.8 -6.9 2.6 -9.9 -0.4z"/>
  <path d="M264.6 918.9 c-5.4 -4.2 -1.9 -12.9 5.1 -12.9 3.7 0 7.3 3.8 7.3 7.7 0 3.1 -4.2 7.3 -7.3 7.3 -1.3 0 -3.6 -0.9 -5.1 -2.1z"/>
  <path d="M751.5 918.5 c-4.9 -4.8 -1.6 -12.5 5.3 -12.5 6.7 0 9.8 8.8 4.6 12.9 -3.5 2.8 -6.9 2.6 -9.9 -0.4z"/>
  <path d="M660.3 907.5 c-5.2 -2.2 -7.9 -9.7 -5.3 -14.6 2.3 -4.2 12.6 -6.3 16.7 -3.4 5.6 3.9 4.6 14.7 -1.6 17.9 -3.6 1.9 -5.6 2 -9.8 0.1z m8.2 -4.9 c2.1 -1.5 2.5 -6.7 0.5 -9 -1.6 -2.1 -5.9 -2 -8.2 0.1 -5.4 4.8 1.8 13.3 7.7 8.9z"/>
  <path d="M357.1 904.4 c-3.6 -2.5 -5.2 -7.4 -4 -11.8 1.4 -5 4.5 -6.8 11 -6.4 4.8 0.3 5.6 0.6 7.6 3.7 2.7 4 2.9 6.1 0.8 10.6 -2.6 5.3 -10.5 7.3 -15.4 3.9z m10.3 -5.3 c1.8 -2 1.5 -5.1 -0.6 -7.8 -1.4 -1.8 -5.3 -1.6 -7.2 0.3 -1.9 1.8 -2.1 6.5 -0.4 8.2 1.8 1.8 6.3 1.4 8.2 -0.7z"/>
  <path d="M238.5 902.5 c-2.9 -2.8 -3.2 -7 -0.9 -10.3 2 -2.9 8.5 -3.1 11.4 -0.2 4.3 4.3 0.6 13 -5.5 13 -1.4 0 -3.7 -1.1 -5 -2.5z"/>
  <path d="M779.5 904 c-3.1 -1.2 -4.8 -3.8 -4.8 -7 0 -8.4 11.8 -9.8 14.6 -1.8 1 2.7 -1.2 7.4 -3.9 8.7 -2.9 1.3 -3.2 1.3 -5.9 0.1z"/>
  <path d="M504.1 898.4 c-7.3 -3.7 -10.4 -8.6 -10.9 -17.4 -0.5 -8.5 1.8 -13.5 8.3 -17.8 14.8 -9.8 32.9 -0.5 32.9 16.8 0 16.2 -15.6 25.7 -30.3 18.4z m16.6 -4.2 c4.8 -2.6 7.6 -6.8 8.1 -12.3 0.8 -8.4 -3.5 -14.5 -11.8 -17 -7.6 -2.3 -17.1 3.7 -18.6 11.6 -2.4 13.2 10.9 23.8 22.3 17.7z"/>
  <path d="M213.9 884.1 c-5.1 -4.1 -1.7 -13.1 5 -13.1 3.9 0 7.1 3.4 7.1 7.5 0 6.6 -6.9 9.8 -12.1 5.6z"/>
  <path d="M801.6 883.9 c-5 -3.9 -1.8 -12.9 4.5 -12.9 3.7 0 7.9 4 7.9 7.5 0 3.3 -4.1 7.5 -7.3 7.5 -1.3 0 -3.6 -0.9 -5.1 -2.1z"/>
  <path d="M191.7 864.9 c-3 -1.7 -3.9 -5.5 -2.2 -9.4 1.3 -3.3 1.6 -3.5 6.4 -3.5 5.7 0 7.5 1.9 7.3 7.4 -0.1 5.3 -6.6 8.4 -11.5 5.5z"/>
  <path d="M824.6 863.9 c-5.4 -4.2 -1.8 -12.9 5.4 -12.9 3.6 0 7 3.8 7 7.8 0 6.5 -7 9.4 -12.4 5.1z"/>
  <path d="M623.4 862 c-3.5 -1.4 -6.4 -5.9 -6.4 -10 0 -3.1 0.7 -4.4 3.5 -6.9 5.1 -4.5 10.4 -4.4 15.1 0.3 4 4 4.4 7.5 1.4 12.4 -2.9 4.7 -8.3 6.4 -13.6 4.2z m8.6 -6 c2.4 -2.4 2.5 -3.8 0.4 -6.8 -2 -2.9 -7.9 -3.1 -9.4 -0.3 -1.4 2.8 -1.2 5.2 0.7 7.3 2.1 2.4 5.8 2.3 8.3 -0.2z"/>
  <path d="M391.8 857.4 c-5.5 -2.9 -6.5 -10.2 -2.2 -15.3 2.3 -2.8 3.2 -3.1 8 -3.1 7.3 0 10.4 2.8 10.4 9.5 0 8.7 -8.3 13.2 -16.2 8.9z m10 -4.6 c0.7 -0.7 1.2 -2.6 1.2 -4.3 0 -3.7 -1.6 -5.5 -4.9 -5.5 -5.1 0 -8 6 -4.5 9.4 1.8 1.9 6.5 2.1 8.2 0.4z"/>
  <path d="M169 843 c-1.2 -1.2 -2 -3.3 -2 -5.5 0 -9.4 12.8 -10.2 14.6 -0.8 1.3 6.5 -7.8 11.1 -12.6 6.3z"/>
  <path d="M846.5 842.5 c-4.9 -4.8 -1.9 -12.5 4.9 -12.5 6.7 0 10.1 8.3 5.3 12.8 -3.1 2.9 -7.2 2.8 -10.2 -0.3z"/>
  <path d="M148.5 819.5 c-3 -3 -3.2 -6.4 -0.4 -9.9 1.5 -1.9 3 -2.6 5.4 -2.6 7 0 10.3 8.7 4.9 12.9 -3.5 2.8 -6.9 2.6 -9.9 -0.4z"/>
  <path d="M867.6 819.9 c-3 -2.4 -3.5 -7.2 -1 -10.7 2.3 -3.3 8.6 -3.1 11.3 0.4 3.4 4.3 2.4 8.6 -2.6 11.2 -3.1 1.7 -4.7 1.5 -7.7 -0.9z"/>
  <path d="M129 796 c-2.6 -2.6 -2.6 -8.1 -0.2 -10.3 4.5 -4.1 13.2 -0.6 13.2 5.3 0 6.1 -8.6 9.4 -13 5z"/>
  <path d="M885.5 795.5 c-3 -3 -3.1 -5.4 -0.4 -8.9 1.5 -2 2.9 -2.6 5.7 -2.6 4.3 0 5.5 0.7 7.1 3.7 3.8 7.3 -6.5 13.8 -12.4 7.8z"/>
  <path d="M111.9 771.1 c-1.7 -1.3 -2.3 -2.9 -2.3 -5.6 0 -8.1 10.2 -10.6 14 -3.4 3.8 7.5 -5.1 14.4 -11.7 9z"/>
  <path d="M902.9 771.1 c-1.7 -1.3 -2.3 -2.9 -2.3 -5.6 0 -8.1 10.2 -10.6 14 -3.4 3.8 7.5 -5.1 14.4 -11.7 9z"/>
  <path d="M228.1 765 c-11.6 -2.5 -22.7 -10.5 -27.3 -19.8 -2 -4 -2.3 -6.2 -2.3 -15.2 0 -10 0.2 -10.9 3.5 -17.5 4.5 -9.2 17.6 -22.3 28 -28.2 9.1 -5.1 22.2 -9.6 35 -11.9 13.8 -2.6 65.1 -2.6 83 -0.1 41.3 6 83.8 17 138 35.7 99.6 34.5 112.7 38 146 38 24.2 0 38.1 -4.3 49.8 -15.3 7 -6.7 9.2 -11.1 9.2 -18.3 0 -5 -0.3 -5.9 -3.4 -9 -2.9 -2.9 -4.1 -3.4 -8.3 -3.4 -8.4 0 -12.1 4.1 -10.1 11.4 1.5 5.6 0.2 7.6 -5.1 7.6 -2.8 0 -4.4 -0.7 -6.5 -2.9 -6 -6.3 -3.8 -17.3 4.6 -22.8 3.7 -2.5 5.2 -2.8 14.2 -3.1 9.9 -0.3 10.2 -0.3 15.5 3 8 4.9 11.6 11.7 11.6 21.8 -0.1 6.4 -0.6 8.5 -3.4 14.3 -10.6 22 -38 32.1 -78.9 28.9 -28.7 -2.3 -39.1 -4.9 -104.2 -26.3 -99.5 -32.8 -148.8 -44.4 -200 -46.8 -46.3 -2.2 -80.7 5.8 -98 22.9 -6.8 6.6 -10.3 13.5 -10.8 21.2 -1.1 14.4 12.3 27.2 31.4 30.2 8 1.2 10 2.7 6.5 4.5 -2.9 1.6 -12.8 2.2 -18 1.1z"/>
  <path d="M505.7 760 c-8.9 -1.5 -19 -5.1 -35.2 -12.5 -48.3 -22 -78.1 -32.5 -107 -37.6 -15.1 -2.6 -42.8 -3.7 -54.6 -2 -19.9 2.8 -32.9 10.1 -32.9 18.6 0 4.2 2.3 5.2 6 2.5 6.2 -4.4 13 -1.5 13 5.6 0 6.9 -7.1 13.5 -15.3 14.2 -6.4 0.5 -11.6 -1 -15.8 -4.5 -4.3 -3.6 -5.9 -7.4 -5.9 -13.8 0 -16 14.4 -26.3 43.4 -31 11.6 -1.9 39.7 -1.9 53.6 -0.1 31.7 4.3 69 16.5 114.3 37.5 24.7 11.4 34.3 15.2 44.7 17.6 10.2 2.3 10 2.2 9.4 3.8 -1 2.6 -8.2 3.3 -17.7 1.7z"/>
  <path d="M762.1 760 c-13.1 -1.8 -23.7 -5.9 -36.8 -14.3 -9.6 -6.1 -14.1 -7.7 -22.6 -7.7 l-7.2 -0.1 3 -2.4 c3.1 -2.6 17.9 -8.2 30.5 -11.6 5.4 -1.5 12 -2.2 23.1 -2.6 14.1 -0.5 16.4 -0.3 22.7 1.6 11.7 3.5 22.6 12.2 27.6 21.8 2.9 5.7 2.3 7.1 -4.6 10.2 -10.8 4.9 -23.8 6.7 -35.7 5.1z"/>
  <path d="M98.3 746 c-4.4 -1.8 -5.7 -8.6 -2.3 -12 2.9 -2.9 9.4 -2.7 11.4 0.2 4.6 6.5 -1.9 14.8 -9.1 11.8z"/>
  <path d="M920.4 745.6 c-4.6 -2 -5.9 -7.1 -2.8 -11.4 2 -2.9 8.5 -3.1 11.4 -0.2 3.7 3.7 1.7 11 -3.5 12.4 -1.1 0.3 -3.4 -0.1 -5.1 -0.8z"/>
  <path d="M829.5 732.6 c-7.6 -1.9 -11.2 -4.2 -20.1 -12.7 -4.5 -4.3 -9.4 -8.1 -10.9 -8.5 -3.1 -0.8 -19.2 0.1 -27.5 1.5 -3 0.5 -7.5 1.2 -9.9 1.6 -4.4 0.6 -4.5 0.5 -2.7 -1.4 0.9 -1 3.3 -2.2 5.3 -2.6 2 -0.3 5.3 -1.7 7.4 -3 3.9 -2.5 4.6 -3.3 15.1 -17.5 11.3 -15.2 24.6 -27 30.5 -27 1.3 0 2.9 1 3.9 2.5 3.9 6 -1.3 16.6 -13.5 27.5 -3.6 3.3 -8.4 7.5 -10.6 9.5 l-4 3.6 16.5 -0.7 c24 -0.9 32.2 1.5 42.9 12.8 6.8 7.1 9.3 10.9 8.2 12.6 -1.8 2.9 -21.6 4 -30.6 1.8z"/>
  <path d="M705 726.3 c0.1 -2.7 8.6 -22.7 11.6 -27 6.5 -9.5 16.5 -15 30.2 -16.7 8.2 -1 8.5 -1 10.3 1.3 2.8 3.4 2.4 8.5 -1.3 15.3 -3.5 6.6 -7.6 10.6 -16.7 15.9 -8.4 5 -34.1 13.4 -34.1 11.2z"/>
  <path d="M85.1 718.8 c-8 -2.9 -6.1 -13.8 2.4 -13.8 6 0 9.4 5.7 6.5 11 -1.3 2.5 -5.9 3.9 -8.9 2.8z"/>
  <path d="M932.1 716.4 c-2.5 -3.2 -2.7 -6.1 -0.5 -9.2 2 -2.9 9.3 -3.1 11.7 -0.4 2.1 2.3 2.2 7.1 0.1 10 -2.3 3.3 -8.6 3.1 -11.3 -0.4z"/>
  <path d="M800 703.3 c2.5 -0.2 5.2 -1 6 -1.7 0.8 -0.6 4.8 -2.2 8.7 -3.5 12.1 -3.7 16.8 -8.4 21.4 -21.5 5 -13.9 19.2 -21.6 39.7 -21.6 9.1 0 12.2 0.7 12.2 2.7 0 3.8 -8.7 18.1 -14.6 23.9 -7.2 7.2 -13.6 10 -35.5 15.8 -18.5 4.8 -24 5.8 -33.9 6.1 -4.7 0.1 -6.5 0 -4 -0.2z"/>
  <path d="M70.2 688.7 c-2.6 -2.7 -2.8 -6.4 -0.6 -9.5 1.2 -1.7 2.5 -2.2 5.9 -2.2 5 0 7.5 2.4 7.5 7.2 0 6.3 -8.4 9.2 -12.8 4.5z"/>
  <path d="M944.3 688.4 c-2 -2 -2.4 -3.1 -1.9 -5.7 1.5 -7.7 11.2 -9.3 14.1 -2.4 3.4 8.2 -5.9 14.4 -12.2 8.1z"/>
  <path d="M61.2 661.4 c-2 -0.9 -4.3 -6.1 -3.5 -8.1 1.3 -3.6 3.6 -5.3 7.4 -5.3 6.5 0 9.8 5.9 6.2 10.8 -2 2.6 -6.9 3.9 -10.1 2.6z"/>
  <path d="M955 660 c-2.4 -2.4 -2.7 -8.2 -0.4 -10.4 2.5 -2.5 9.9 -2.1 11.8 0.6 2.2 3.1 2 6 -0.5 9.2 -2.6 3.3 -7.9 3.6 -10.9 0.6z"/>
  <path d="M483.5 656.1 c-13.9 -2.2 -26.1 -7.7 -32.5 -14.7 -4.4 -4.8 -5 -7.8 -2.1 -9.4 2.9 -1.5 5.3 -1.3 13.3 1.4 17.8 6 32.3 4.2 54.8 -6.7 19.4 -9.5 42 -29.5 65.2 -58 12.4 -15.1 42.8 -57.2 42.8 -59.2 0 -1.5 -17.3 -8.7 -24.5 -10.2 -6.7 -1.3 -9.3 -1.4 -15.9 -0.5 -11.2 1.6 -17.1 4.7 -23.6 12.1 -6.3 7.2 -9.3 7.9 -14.1 3.2 -2.6 -2.6 -2.9 -3.6 -2.9 -9.1 0 -7 1.3 -10.1 6.7 -15.1 4.5 -4.3 9.2 -6.9 12.7 -6.9 1.4 0 2.8 -0.4 3.1 -1 1 -1.7 24.8 -1.2 31.9 0.6 6.1 1.6 20.1 7.9 28.8 13.1 2.6 1.5 4.9 2.5 5.1 2.3 0.2 -0.3 3.9 -5.7 8.2 -12 43.8 -64.1 67.8 -90.7 92.9 -103 17.9 -8.8 31 -5.2 32.4 8.9 0.7 7.9 -1.3 15.6 -9.4 36.1 -10.1 25.7 -22.1 59.2 -28.2 78.5 -4.9 15.5 -10.2 34.1 -10.2 35.9 0 0.4 3.7 0.6 8.2 0.5 7.3 -0.4 8.3 -0.2 8.6 1.4 1.2 6.1 -3.3 9.9 -13.9 11.8 l-6.7 1.2 -1.6 8.1 c-2.6 13.3 -3.8 27.6 -3.1 36.1 2 24.8 11 37.4 26.5 37.5 7.2 0 11.2 -1.2 18.3 -5.6 6.3 -3.9 10 -4 11.2 -0.4 1.8 5.7 -9.9 15.9 -23 19.9 -9.6 3 -17 3.4 -25.5 1.7 -20.3 -4.2 -33.6 -17.9 -38.3 -39.1 -3.6 -15.8 -3.1 -37.3 1.3 -58 2.1 -10.5 3.3 -8.6 -10.5 -17.3 -4.9 -3.1 -12.5 -8.3 -16.8 -11.4 -4.3 -3.2 -8.5 -5.8 -9.2 -5.8 -0.8 0 -3.5 3.5 -6.1 7.8 -33.4 54.4 -58.1 84.5 -85.2 103.9 -11 7.9 -26.3 15.5 -37.2 18.7 -9.5 2.7 -23.8 3.9 -31.5 2.7z m25.2 -6.6 c38.4 -8.2 75.1 -42.9 118.3 -112 7.4 -11.8 14.1 -21.5 14.9 -21.5 0.8 0 5.1 2.6 9.5 5.9 10 7.2 24.5 16.8 31.1 20.6 2.8 1.5 5.1 2.9 5.2 2.9 0.1 0.1 -0.9 5.6 -2.3 12.1 -3.1 14.6 -4.4 41.7 -2.5 51.7 1.9 10 4.9 17.9 9 23.8 11.8 17.1 36.5 22 57.4 11.4 6 -3.1 5 -4.3 -1.8 -2 -5.4 1.9 -15.2 2.1 -20.8 0.4 -5.8 -1.8 -13.9 -9.6 -17 -16.6 -6.1 -13.6 -7.1 -34.6 -2.7 -59.2 2.9 -16 2.1 -14.7 9.3 -15.2 6.5 -0.4 11.7 -2.4 12.5 -4.6 0.3 -1 -0.3 -1.1 -2.5 -0.5 -1.5 0.4 -5.5 0.8 -8.8 0.8 -7.1 0 -7 1.8 -1.5 -18.5 7 -25.8 18.9 -60.5 33.6 -97.8 10 -25.3 11.9 -31.8 11 -38.1 -1.2 -8.6 -7 -11.6 -17.3 -8.6 -24.7 7.1 -53.2 37.5 -99.2 105.7 -5.1 7.6 -9.6 14 -10.1 14.3 -0.4 0.3 -5.7 -2.4 -11.8 -5.9 -23.9 -13.6 -46.6 -17 -62.1 -9.1 -5.2 2.6 -9.8 7.3 -10.7 10.9 -1 4 0 9.8 1.9 11 1.5 0.9 2.5 0.2 7.1 -4.9 3.5 -3.9 7.5 -7.1 11.2 -9 5.5 -2.7 6.9 -3 18.9 -3.3 12 -0.4 13.6 -0.2 20.4 2.2 7.3 2.6 19.4 8.6 21.9 11 1 0.9 -1.2 4.7 -10.6 18.6 -38 56.4 -70.5 90.1 -101.7 105.5 -19.1 9.4 -37 12.6 -50.5 9 -7.9 -2.1 -10.2 -2.3 -10.7 -0.9 -0.7 2 15.4 9.3 23.7 10.7 6 1 21.4 0.6 27.7 -0.8z"/>
  <path d="M682.5 539.2 c-12.4 -6.8 -38.5 -25.4 -38.5 -27.4 0 -1.5 2.5 -6 16.1 -28.1 27.8 -45.1 53.8 -77.8 71 -89.1 9 -5.9 15.9 -5.9 15.9 0.1 0 1.3 -3.2 8.5 -7.1 16.1 -19.6 37.8 -37.7 84 -49.2 125.6 -0.8 2.8 -1.8 5.1 -2.3 5.3 -0.5 0.1 -3.1 -1 -5.9 -2.5z m5 -10.9 c3.2 -11.9 15 -46.2 22.5 -65.2 4 -10 12.6 -29 19.1 -42 6.6 -13.1 11.9 -24.3 11.9 -24.9 0 -2 -1.4 -1.4 -8.7 3.7 -12.3 8.7 -32.2 32 -50 58.6 -9 13.5 -27.7 43.4 -30.2 48.2 l-2.1 4.2 5.7 4.3 c7.3 5.4 28.6 19.8 29.4 19.8 0.3 0 1.4 -3 2.4 -6.7z"/>
  <path d="M80.2 638 c-12.5 -2.3 -24.7 -8.5 -31.3 -15.8 -13.1 -14.8 -7.2 -40.6 9.8 -42.9 5.8 -0.8 7 1.3 4.4 7.1 -3 6.9 -3.5 12.6 -1.7 18.8 7.7 26.7 49.7 30.6 84.2 7.9 10.7 -7 25.5 -22 33.2 -33.6 7.3 -10.9 14.4 -25.8 18.7 -39 10.8 -32.8 9.7 -66.8 -2.7 -90.7 -19.6 -37.9 -75 -47.3 -116.7 -19.8 -11.5 7.6 -21.3 18.1 -25.9 27.8 -3 6.3 -3.6 8.9 -4 15.8 -0.5 9.9 1.6 15.5 7.3 19.2 4.1 2.6 4.3 3.5 1.3 5.6 -2.7 1.9 -10.5 2.1 -16.1 0.4 -5.5 -1.7 -12.2 -8.2 -13.6 -13.3 -4.2 -15.3 2.8 -32.8 19.3 -48.9 15.1 -14.5 35.2 -25.2 58.1 -30.7 12 -2.8 37.3 -3.6 49.4 -1.5 40.9 7.2 66.9 31.5 75.8 71 2.5 11.1 2.2 37.3 -0.5 50.3 -8.8 41 -34.1 77.7 -66.7 96.6 -8.8 5.1 -23.1 10.5 -35.3 13.3 -12 2.8 -37.3 4.1 -47 2.4z"/>
  <path d="M85.5 615.3 c-10.4 -5.4 -13.3 -16.6 -10.6 -40.4 3.2 -27.9 15.5 -76.9 28 -111.6 10.5 -29.1 13.7 -33.3 25.9 -33.3 9.3 0 10.2 2.6 5.1 15 -14 34.2 -32.9 119.8 -34.6 156.8 -0.4 8.7 -1 12.8 -2 13.8 -1.9 1.9 -8 1.7 -11.8 -0.3z"/>
  <path d="M395.3 613.1 c-7.6 -2.6 -12.7 -6.3 -16.4 -12 -1.8 -2.8 -3.5 -5.1 -3.8 -5.1 -0.2 0 -2.5 1.7 -5 3.9 -10 8.4 -19.6 11 -27.3 7.3 -5 -2.5 -9.5 -8.7 -10.5 -14.4 -0.3 -2.1 -0.9 -3.8 -1.2 -3.8 -0.4 0 -2 1.7 -3.6 3.8 -6.8 8.8 -15.8 14.7 -23.8 15.8 -9.5 1.3 -17.9 -5.7 -19.6 -16.5 -0.4 -2.8 -1 -5.4 -1.3 -5.7 -0.3 -0.3 -2.8 2.4 -5.7 5.9 -10.2 12.9 -19.2 18.2 -29.7 17.5 -8.3 -0.5 -12.9 -4 -16.4 -12.4 -2.1 -5.2 -2.4 -7.3 -2.4 -18.4 0.1 -14.5 2.6 -27.3 10.1 -50.4 5.9 -18.2 7.9 -20.6 17.7 -20.6 5.8 0 7 0.3 9.1 2.5 1.4 1.3 2.5 3 2.5 3.8 0 0.8 -2.2 8.5 -4.9 17.3 -10.6 34.6 -14.3 59.5 -9.4 63.5 3.2 2.7 11.8 -4.5 20.2 -17.1 7 -10.5 10.4 -18.5 17.1 -40.4 7.4 -24.4 7.5 -24.6 18 -24.6 5.2 0 6.5 0.4 8.7 2.6 3.1 3.1 2.9 5.2 -2.8 25.6 -6.2 22.5 -9.1 36.6 -9.2 45.3 -0.2 7.4 0 8 1.9 8.3 4 0.6 15.1 -11.4 20.7 -22.4 0.9 -1.7 2.1 -8 2.7 -14 3.6 -34 15.2 -75.7 28.9 -103.9 14 -28.8 29.2 -43.5 44.7 -43.5 10.4 0 14.4 5.1 14.4 18.3 0 18 -11.7 48.3 -28 72.9 -7.7 11.5 -13.8 19.4 -25.2 32.4 -8.7 10 -8.9 10.3 -10.9 19 -1.3 5.6 -2.2 14.3 -2.6 23.5 -0.6 15.4 0.1 18.9 3.6 18.9 2.5 0 9.3 -4.8 12.7 -8.9 2.7 -3.3 2.9 -4.2 3.5 -15.5 1 -20.1 8 -36.5 21.4 -50.1 9.7 -9.9 20.7 -15.4 32.1 -16.2 7 -0.4 8.4 -0.2 12.4 1.9 6.1 3.3 9 8.5 9 16.3 0 13.6 -11.4 26.3 -19.9 22.2 -3.5 -1.7 -3.7 -4.2 -0.6 -8.2 5.2 -7 7.5 -17.8 4 -19.1 -6.8 -2.6 -21.9 16.4 -28.1 35.3 -2.6 7.9 -2.9 10.2 -2.9 21.8 0 10.8 0.3 13.7 1.9 16.9 3.7 7.4 10.9 9.4 20.8 5.6 7.1 -2.7 13.2 -7.3 20.3 -15.5 l6 -6.8 0.7 -9.6 c1.2 -18.4 7.9 -33.2 20.8 -46.1 8.3 -8.3 15.5 -12.4 24.8 -14.1 13.1 -2.5 22.5 1 26.4 9.8 1.6 3.7 2 6.1 1.6 11.9 -1.2 18.3 -15.5 33.5 -39.3 41.5 l-8 2.7 0.3 4.8 c1 18.5 12.2 27.2 27.5 21.4 4 -1.5 7.9 -4.1 12.3 -8.2 8.3 -7.8 12.7 -13.9 18.9 -26.2 3.9 -7.9 5.5 -10.2 7.3 -10.4 6.4 -0.9 6.7 6 0.9 18.3 -16.7 35.2 -46.8 51.2 -73.2 39.2 -6.9 -3.2 -12.6 -8.5 -15.6 -14.4 -1.3 -2.7 -2.5 -5 -2.6 -5.2 -0.2 -0.2 -3.8 2.9 -8 7 -15.3 14.6 -33.2 20.2 -48 15z m88.9 -55.7 c7.3 -3.7 15.9 -12.3 19.3 -19.1 3.5 -7.2 4.7 -18.1 2.1 -20.2 -2.3 -2 -6.6 0.1 -11.9 5.8 -5.6 6 -9.1 11.9 -12.6 21.7 -3.7 10.1 -4.6 14.4 -3.1 14.4 0.6 0 3.4 -1.2 6.2 -2.6z m-117.3 -41.9 c19.6 -25 37.2 -60.4 40 -80.9 1.1 -7.7 0.3 -12.6 -2 -12.6 -2.5 0 -11.1 11.4 -16.3 21.8 -6.7 13.2 -16.7 40.5 -23.2 62.7 -1.9 6.6 -3.7 12.8 -4 13.8 -0.9 2.9 0.2 1.9 5.5 -4.8z"/>
  <path d="M898 611.4 c-10.1 -2.7 -18 -9.4 -21.7 -18.2 -0.8 -2 -1.7 -3.9 -1.9 -4.1 -0.2 -0.2 -4.1 3.2 -8.7 7.5 -4.6 4.4 -11.2 9.5 -14.8 11.4 -5.4 2.9 -7.6 3.4 -14.4 3.7 -6.9 0.3 -8.5 0.1 -12 -1.9 -7.8 -4.6 -10.5 -11.2 -10.5 -25.8 0 -11.4 1.8 -22.3 6.5 -39.4 2.8 -10.1 12.6 -39.4 16 -47.7 0.5 -1.4 -1 -1.9 -10.2 -3.3 -24.3 -3.8 -35.8 -3.1 -48.2 3 -8 3.9 -9.2 4.1 -11.4 1.6 -2.6 -2.9 -2 -5 2.5 -9.2 10.1 -9.3 30.7 -12.1 58.8 -8 7.4 1.1 13.7 1.6 14.1 1.2 0.4 -0.4 3.2 -6.5 6.2 -13.6 6.6 -15 11.7 -24.4 15.9 -29.1 6.7 -7.7 20 -7.1 23.3 0.9 1.9 4.5 1 7.4 -8.7 28 -4.5 9.6 -7.5 17.3 -7 17.8 0.4 0.4 9.4 1.1 19.8 1.4 16.8 0.6 20.2 0.4 30.7 -1.5 18.6 -3.5 26.9 -6.5 43.7 -16.1 4.8 -2.8 14.2 -2.8 17 0 1.1 1.1 2.2 3.1 2.6 4.4 0.8 3.5 -2.3 9.6 -6.5 12.3 -6.6 4.4 -27.4 9.8 -48.1 12.4 -9.6 1.3 -46.8 1.8 -59.3 0.9 l-6.9 -0.5 -5.4 14.9 c-12.6 34.3 -21.7 73.5 -18.5 79.5 0.7 1.1 2.1 2.1 3.2 2.1 5.1 0 15.3 -7.7 24 -18.2 4.2 -5.1 4.9 -6.5 4.9 -10.2 0 -12.6 8.5 -32.8 18.3 -43.2 12.7 -13.7 21.5 -18.5 35.2 -19.2 11.2 -0.6 16 1.4 19.9 8 6.7 11.8 3.1 26.4 -9.8 39.3 -7.6 7.6 -16.9 13.1 -28.6 17.1 l-6.5 2.1 -0.3 5.9 c-0.3 7.3 2.6 13.7 7.8 17.2 3.1 2.1 4.4 2.3 11 2 7.7 -0.5 10.5 -1.6 19.6 -7.9 7.2 -4.9 18.7 -18.8 23.7 -28.6 2.4 -4.6 4.5 -6.3 7.8 -6.3 4.1 0 4.6 3.2 1.6 10.8 -7.3 17.9 -25.9 37.6 -41.2 43.6 -11.5 4.5 -23.8 5.6 -33.5 3z m19 -4.3 c8.9 -1.6 16.5 -4.1 18.4 -6.1 2 -2 2 -2 -0.1 -2 -1.1 0 -4 0.7 -6.3 1.5 -2.3 0.8 -7.3 1.5 -11 1.5 -8.7 0 -14.4 -2.8 -18.3 -9.1 -3.1 -5.1 -5.2 -15.3 -4.2 -21.5 0.6 -4 0.6 -4 6.3 -5.2 9.6 -2 23.4 -9.5 30.6 -16.5 7.7 -7.6 10.8 -13.9 11.4 -22.8 0.5 -7.7 -1 -11.5 -5.9 -15 -2.8 -1.9 -4 -2.1 -11.4 -1.7 -7 0.5 -9.3 1.1 -15.4 4.3 -17.1 9 -31 31.1 -32.8 52.3 -0.6 6.9 -0.9 7.6 -5.1 12.5 -9.9 11.3 -16.9 17.9 -21.1 19.8 -5.7 2.5 -12.2 2.5 -14.5 0 -5.6 -6.2 -0.9 -33.7 12.8 -74.6 3.5 -10.5 7.6 -21.7 9 -24.9 l2.6 -5.9 4.8 0.7 c2.6 0.3 13.5 0.9 24.2 1.2 23.4 0.8 42 -1 64.5 -6.1 17.5 -4 23.8 -7.1 24.3 -12.3 0.3 -2.6 -0.1 -3.4 -2.2 -4.3 -3 -1.4 -5.9 -0.4 -15.6 5.2 -20.6 11.9 -53.3 17.1 -86.7 13.8 -8.3 -0.9 -11.3 -1.6 -11.3 -2.5 0 -0.8 4.1 -10.3 9.1 -21.1 4.9 -10.8 9.3 -21 9.6 -22.5 1.3 -6.7 -7.6 -9.3 -13.7 -4.1 -3.3 2.7 -16.9 29.2 -20.7 40.2 -1 2.9 -2.4 5.6 -3 5.8 -0.7 0.3 -8 -0.4 -16.3 -1.6 -18.3 -2.5 -32.2 -2.8 -34 -0.6 -1.1 1.3 0.2 1.5 10.5 1.5 7.2 0 17 0.8 25.2 2.1 11.4 1.9 13.3 2.4 12.8 3.8 -15.9 41.1 -24.5 73.1 -24.5 91 0 9.8 1.4 14.4 5.4 18.9 3.1 3.3 3.9 3.6 10 4 10.1 0.7 17 -3.1 31 -17 6 -5.9 11.3 -10.8 11.8 -10.8 0.4 0 0.8 0.9 0.8 2 0 3.5 4.2 13.1 7.2 16.6 7.3 8.3 19 11.8 31.8 9.5z"/>
  <path d="M897 562.1 c0 -3.8 4 -14.3 9.3 -24.5 10.2 -19.7 22.2 -28.2 29.4 -21 2.4 2.4 2.5 3.1 2.1 9.3 -0.7 8.8 -4.2 15.5 -12.9 24.2 -7 7.1 -16.1 12.3 -23.7 13.5 -3.8 0.6 -4.2 0.5 -4.2 -1.5z m12.5 -6.6 c6.7 -3.1 17.5 -13.6 20.5 -19.9 3 -6.3 3.8 -13.7 1.7 -15.5 -3 -2.4 -9.3 1.6 -14.7 9.4 -5.1 7.4 -15 28.5 -13.3 28.5 0.3 0 3 -1.1 5.8 -2.5z"/>
  <path d="M737.5 609.5 c-1.4 -1.3 -2.5 -3.4 -2.5 -4.7 0 -1.3 2.2 -10 4.9 -19.3 8.8 -30.8 10.4 -39.2 10.3 -54.7 0 -13 0.1 -13.7 2.3 -15.8 1.8 -1.6 4 -2.3 8.7 -2.7 5.5 -0.4 6.7 -0.2 9.2 1.8 3.4 2.7 5.6 7.5 5.6 12.5 l0 3.7 3.4 -4.4 c1.9 -2.4 5.2 -5.6 7.3 -7.1 2.1 -1.5 4.8 -3.5 6 -4.3 1.1 -0.9 5.1 -2.1 8.6 -2.7 5.8 -0.9 6.9 -0.9 9.8 0.8 5.4 3.2 7.1 6.3 7 13.3 0 17.1 -9.8 29 -18.2 22.2 -1.9 -1.6 -2.4 -3 -2.7 -9 -0.3 -5 -0.8 -7.1 -1.7 -7.1 -1.9 0 -9.7 10.7 -15 20.4 -4.6 8.5 -11.8 24.1 -19.5 42.6 -2.6 6.1 -5.8 11.8 -7.6 13.8 -2.8 2.8 -3.9 3.2 -8.3 3.2 -4.2 0 -5.7 -0.5 -7.6 -2.5z m13.1 -4.9 c0.8 -1.4 4.9 -10.3 9 -19.8 12.4 -28.9 21.2 -45.1 29.2 -54 2.8 -3.1 4.1 -3.8 7.1 -3.8 5.2 0 6.1 1.4 6.1 9 0 3.6 0.4 7.1 0.9 7.8 2.8 4.5 9 -4.2 9.8 -13.8 0.7 -7.7 -0.1 -10.7 -3.7 -12.5 -8.9 -4.6 -20.3 2.6 -32.2 20.4 -2.8 4.2 -5.5 8.1 -6.1 8.6 -0.6 0.7 -0.7 -2.5 -0.2 -9.1 1 -15.8 -0.9 -20.4 -8.7 -20.4 -6 0 -6.2 0.5 -6.3 15.2 -0.1 15.2 -1.6 22.9 -9.5 50.9 -4.8 17.1 -5.7 21.8 -4.3 23.2 0.3 0.4 2.1 0.7 3.9 0.7 2.4 0 3.8 -0.7 5 -2.4z"/>
  <path d="M964.5 417.5 c-1.4 -1.3 -2.5 -3.6 -2.5 -5 0 -3.5 4.2 -7.5 7.8 -7.5 4.5 0 7.6 3 7.6 7.5 0 7 -7.9 10.1 -12.9 5z"/>
  <path d="M59.5 388.8 c-7.5 -4.1 -4.9 -13.8 3.7 -13.8 5.8 0 9.1 5.6 6.4 10.8 -2.2 4.2 -5.9 5.3 -10.1 3z"/>
  <path d="M911.5 388 c-11.3 -3 -29.7 -11.2 -68.5 -30.6 -60.1 -30.2 -109.6 -57.8 -186.5 -104.2 -40.5 -24.4 -51.5 -31.4 -53.3 -33.7 -1.7 -2.2 -2.5 -2.3 -15.8 -2.3 -45 -0.1 -81.3 -18.8 -101 -52.2 -5.7 -9.6 -11.9 -25.6 -14.6 -37.3 -2.8 -12.3 -3.1 -31.7 -0.5 -36.5 1 -1.7 2.2 -3.2 2.8 -3.2 0.6 0 3.2 1.5 5.8 3.4 12.4 9 20.7 11.4 43.6 12.6 42.2 2.2 68.8 11.6 89.7 31.8 9.8 9.4 15.2 16.8 20.6 28.3 2.9 6.2 4.3 8 7.6 9.9 4.6 2.6 64.8 40.3 83.1 52 77.3 49.5 166.5 112.8 194.2 137.8 11.5 10.3 15.1 18.8 10.3 24 -2.6 2.8 -7.7 2.8 -17.5 0.2z m12.2 -6.5 c1.5 -4.9 -20.2 -22.8 -80.2 -66 -38 -27.4 -133 -90.9 -134.6 -89.9 -2.5 1.5 -21.9 33.4 -21.9 36.1 0 3.7 101.2 60.4 163.5 91.6 49.1 24.5 71.6 33.2 73.2 28.2z m-238.9 -129.7 c2.2 -4 7.4 -12.4 11.6 -18.7 4.2 -6.3 7.5 -11.5 7.3 -11.6 -0.1 -0.1 -2.5 -1.6 -5.3 -3.3 -2.8 -1.8 -5.8 -3.2 -6.6 -3.2 -2.4 0 -16.8 20.2 -22.7 31.7 l-2.1 4.1 6.3 4.1 c3.4 2.2 6.5 4 6.9 4 0.3 0.1 2.4 -3.2 4.6 -7.1z m-20.2 -9.5 c2.3 -4 15.5 -23.7 20.2 -30.2 1.1 -1.6 -1 -3.2 -22.5 -16.6 -24.8 -15.5 -28.9 -17.7 -30.1 -15.9 -8.4 12.1 -23.2 34.6 -23.2 35.2 0 1.2 50.3 32.2 52.2 32.2 0.4 0 1.9 -2.1 3.4 -4.7z m-61.6 -32.7 c1.6 -0.7 7 -8.6 7 -10.3 0 -1.1 -22.7 -11.8 -37.7 -17.8 l-9.2 -3.7 -7.5 3.7 c-5.4 2.7 -9.2 3.9 -14 4.2 -3.6 0.3 -6.6 1 -6.6 1.5 0 0.5 1.3 2.6 2.9 4.6 1.6 2 3.3 5.3 3.6 7.3 0.7 3.5 0.9 3.7 7.9 5.8 6.3 1.9 17.1 4.1 26.1 5.5 4.2 0.6 25.7 0 27.5 -0.8z m-70.6 -17.4 c-1.5 -2.6 -4.9 -6.9 -7.6 -9.5 -7.5 -7.2 -5.6 -8.9 5.4 -4.8 10.8 4 22.2 1.7 29.2 -5.7 4.8 -5.2 4.7 -10.3 -0.5 -21.3 l-4.3 -9.1 2.4 -2 c2.6 -2.1 5.4 -2.1 17.6 -0.2 3.8 0.6 4.3 0.4 6.3 -2.5 3 -4.1 2.1 -8.1 -2.9 -13.1 -7 -7 -24.7 -11.2 -56.2 -13.5 -21.4 -1.5 -30 -3.4 -37.9 -8.4 -8 -4.9 -8.3 -4.7 -7.6 6.2 1.9 28.7 14.1 56.6 32.2 73.5 6.2 5.8 16.2 13 23 16.5 4.2 2.1 4.5 0.1 0.9 -6.1z m82.3 0.7 c0.9 -0.9 0.8 -1.9 -0.2 -3.9 -1.9 -3.7 -13.2 -14 -20.6 -18.7 -3.2 -2.1 -5.9 -4.4 -5.9 -5 0 -1.9 0.9 -1.6 7.3 2 8.8 4.9 17.7 11.8 20.3 15.7 3.8 5.5 2.8 1.1 -1.3 -5.9 -8.5 -14.3 -33.3 -31.3 -47.9 -32.8 l-5.2 -0.6 3.4 6.8 c2.7 5.3 3.4 7.9 3.4 12.4 -0.1 3.1 -0.7 6.7 -1.5 8.1 -2 3.4 -1.9 3.7 1.3 4.5 4.6 1.1 27.3 10.4 35.2 14.4 8.2 4.2 10 4.7 11.7 3z m13.2 -18.3 c1.8 -1.1 1.3 -4.3 -1.5 -9.9 -7.9 -15.5 -21 -29.1 -36.6 -38.2 -2.7 -1.5 -4.8 -2.5 -4.8 -2.2 0 0.2 0.7 2.1 1.5 4 1.9 4.6 1 8.9 -2.5 12.7 l-2.8 3 7.5 4 c13.4 7.2 24.1 16.8 31.5 28.1 l3.1 4.9 1.8 -2.9 c0.9 -1.6 2.2 -3.2 2.8 -3.5z"/>
  <path d="M577.5 203.9 c-13 -1.9 -31 -9.4 -33.9 -14.1 -2 -3.3 0.6 -3.2 7.2 0.4 8.3 4.5 20.2 8.2 31 9.8 8.2 1.2 10.7 2.5 8.1 4.1 -1.6 1 -4.2 1 -12.4 -0.2z"/>
  <path d="M612.1 158.6 c-5.1 -6.6 -13.7 -14.4 -20.4 -18.5 -3.9 -2.4 -4.9 -5.1 -1.9 -5.1 2.4 0 9.7 4.8 15.9 10.4 5.3 4.8 13.3 15.7 13.3 18.2 0 2.7 -1.9 1.3 -6.9 -5z"/>
  <path d="M959.5 389 c-4.9 -1.9 -6.4 -8.2 -3 -12 2.2 -2.5 8.6 -2.7 10.9 -0.4 3.8 3.8 3.1 9.6 -1.4 11.9 -3.2 1.7 -3.7 1.7 -6.5 0.5z"/>
  <path d="M244.5 378.5 c-13.9 -2.6 -26.5 -8.4 -31.8 -14.6 -3.8 -4.4 -12.1 -18.2 -25.7 -42.6 -10.9 -19.4 -11.7 -22.3 -7.5 -26.3 2 -1.9 2.5 -3.3 2.5 -6.9 -0.1 -4.2 -0.4 -4.8 -3.8 -7.2 -2 -1.4 -5 -5 -6.7 -8 -2.7 -4.8 -3 -6.3 -3 -13.9 0 -7.7 0.3 -9.2 3.3 -15.3 1.9 -3.7 5.9 -9.5 9 -12.9 l5.7 -6.1 -0.3 -6.1 c-0.4 -7.9 0.6 -10.5 7 -17.3 3.8 -3.9 7.9 -6.8 14.1 -10 l8.9 -4.4 -5 -4.8 c-2.7 -2.6 -5.7 -6.1 -6.5 -7.7 -5.6 -10.9 -1 -21.3 10.1 -23 4.4 -0.7 7 -0.1 14.5 3.1 1.3 0.5 1.7 0.2 1.7 -1.4 0 -3.9 2.9 -8 7.2 -10.1 11.1 -5.4 20.4 0.6 23 15 l1.2 6 10.9 0 c8.9 0 12.2 0.4 18.4 2.5 12 4.1 21.1 11.1 26.5 20.5 1.8 3 3.3 4.1 7.3 5.4 6.8 2.1 16.6 8.1 22.1 13.4 5.3 5 9.2 12.9 10.1 20.1 0.5 4.6 0.9 5.2 5.3 7.9 3.3 2.1 5.4 4.3 7 7.7 2.2 4.5 2.3 5.5 1.7 19.9 -0.7 17.3 -4.2 60.9 -5.7 70.9 -0.6 3.7 -1.7 8.5 -2.6 10.7 -5.3 13.1 -38.5 29.2 -72.2 35 -13.3 2.3 -35.7 2.6 -46.7 0.5z m23.2 -6.2 c-0.3 -0.5 -5.2 -15.4 -11.1 -33.3 -12.2 -37.2 -12.8 -38.4 -21.4 -37.8 -3.5 0.2 -4.8 0.7 -5 2 -0.2 1 2.8 9.8 6.6 19.5 3.9 9.8 9.6 24.3 12.7 32.2 7.6 19.5 6.6 18.1 13.1 18.1 3 0 5.3 -0.3 5.1 -0.7z m20.1 -0.8 c0.3 -0.3 -3.9 -16.1 -9.3 -35 l-9.9 -34.5 -4 -1.1 c-6.4 -1.7 -12.6 0.3 -12.6 4 0 1.6 17.1 54.7 20.6 64 l1.7 4.4 6.5 -0.6 c3.6 -0.4 6.7 -0.9 7 -1.2z m-46.5 -21.2 c-4.7 -12 -10.3 -26.7 -12.5 -32.6 -4.4 -11.7 -5.7 -13.2 -12.3 -14.2 -6 -1 -7.1 0.8 -4.6 7.1 2.6 6.7 25.6 54.9 27.5 57.9 1.5 2.2 3.5 3.1 8.2 3.4 2 0.1 1.5 -1.6 -6.3 -21.6z m61.2 18.3 c4.9 -1.2 5 -1.4 4.7 -4.7 -0.3 -4.2 -14.9 -62.5 -16.2 -64.9 -2 -3.8 -11.9 -5 -15.7 -1.9 -1.9 1.7 -1.7 2.8 3.6 20.9 2.7 9.1 7.3 24.5 10.2 34.3 5.7 19.5 4.9 18.6 13.4 16.3z m-73.9 -7.8 c-1.9 -4 -7 -14.9 -11.3 -24.3 -4.4 -9.3 -9.2 -19.6 -10.6 -22.7 -3.6 -8.2 -13.6 -14.9 -15.3 -10.4 -1 2.6 26.3 55.2 30.8 59.3 2.3 2 7.6 5.2 9 5.3 0.4 0 -0.8 -3.3 -2.6 -7.2z m94.1 1.7 c2.7 -1.2 3.3 -1.9 2.9 -3.7 -0.3 -1.3 -1.2 -7 -2.1 -12.8 -2.7 -17.2 -10.6 -53.4 -12 -54.8 -0.6 -0.8 -3.1 -1.8 -5.5 -2.3 -4.9 -1.1 -8.6 0.6 -9.5 4.4 -0.3 1.2 1.3 9 3.5 17.2 2.3 8.3 6.2 23.3 8.6 33.5 2.4 10.2 4.7 19.1 4.9 19.9 0.6 1.4 3.4 1 9.2 -1.4z m14.4 -6.6 l4.1 -2 -0.7 -8.2 c-1.8 -21.4 -6.6 -62.2 -7.5 -63.1 -0.6 -0.6 -2.8 -1.1 -5 -1.1 -3.2 0 -4.7 0.7 -7.2 3.2 l-3.1 3.1 6.1 30.4 c3.4 16.7 6.4 32.4 6.8 35.1 0.3 2.6 1 4.7 1.6 4.7 0.5 0 2.7 -0.9 4.9 -2.1z m13.1 -8.6 c0.9 -1 1.8 -3.1 2.1 -4.7 0.6 -3.3 -1 -62.9 -1.8 -66.2 -1 -4.4 -8.7 -3.8 -10.4 0.7 -0.4 1.1 -0.4 5.1 0 8.7 0.7 6 4.9 44.4 6.5 58 0.6 5.6 1.2 6.2 3.6 3.5z m10.2 -21.5 c1.4 -22.4 3.6 -53.3 4.1 -55.4 0.4 -1.9 0.1 -2.1 -2.6 -1.9 -1.6 0.1 -3.5 0.7 -4 1.2 -0.7 0.7 -0.6 10.7 0.2 30.3 0.6 16.1 0.9 31 0.6 33.1 -0.3 2.2 -0.2 3.9 0.3 3.9 0.4 0 1 -5.1 1.4 -11.2z m-140.9 -43.7 c14.6 -4 29 -7.1 32.6 -7.1 2.3 0 9.6 0.9 16.3 2.1 16.6 2.8 29.8 2.4 37.9 -1.3 4.9 -2.3 6.3 -3.6 9.7 -9.1 3.5 -5.6 5 -6.9 12.4 -11.1 10.2 -5.7 17 -11.5 19.8 -17 3 -5.7 3 -14.6 -0.1 -20.4 -4.5 -8.7 -16.1 -17.1 -28.2 -20.3 -4 -1.1 -4.9 -1.8 -6.4 -5.2 -2.4 -5.5 -7 -10.4 -13.7 -14.8 -8.2 -5.2 -16 -7.1 -28.7 -6.7 l-10.4 0.3 -1.2 4 c-1.9 6.5 -6.1 12 -11.6 15 -4.7 2.5 -5.8 2.7 -13.8 2.3 -10.3 -0.6 -16.8 0.9 -26.3 5.9 -11.9 6.2 -16.4 13.4 -15.1 24 l0.6 5.3 -6.5 6.8 c-3.5 3.7 -7.4 9 -8.7 11.6 -7.6 16.4 0.3 31.9 18.6 36.6 4.6 1.1 17.3 0.6 22.8 -0.9z m26 -96.7 c6.4 -3 10.7 -12.2 10.8 -22.9 0.1 -7.6 -2.3 -12.2 -7.5 -14.8 -3.2 -1.6 -4.1 -1.7 -6.4 -0.5 -4.2 2 -6.4 5.9 -7.1 12.1 -0.3 3.1 -0.8 5.7 -1 5.7 -0.2 0 -2.6 -1.8 -5.3 -3.9 -7.7 -6.1 -14.9 -6.6 -19 -1.4 -6.2 8 3.6 21.7 19 26.4 4.4 1.3 13.1 1 16.5 -0.7z"/>
  <path d="M290.5 253 c-1.8 -2 -1.8 -2.1 0.6 -4.6 4.4 -4.7 10.9 -0.7 7.3 4.5 -1.9 2.7 -5.5 2.7 -7.9 0.1z"/>
  <path d="M222 249.5 c-2.1 -5.4 3.2 -10.1 8.6 -7.6 3.1 1.4 3.2 5 0.1 7.9 -3.3 3.1 -7.5 2.9 -8.7 -0.3z"/>
  <path d="M320.5 234 c-1.2 -0.4 -2.6 -1.5 -3.3 -2.3 -1.7 -2 -1.8 -7.2 -0.2 -9.2 1.9 -2.3 6.7 -1.9 9.5 1 3.3 3.2 3.2 6.8 -0.1 9.4 -2.9 2.3 -3 2.3 -5.9 1.1z m4.9 -4.5 c1 -2.6 -0.5 -4.5 -3.5 -4.5 -2.1 0 -2.9 0.5 -2.9 1.8 0 3.7 5.1 5.9 6.4 2.7z"/>
  <path d="M261.3 228 c-2.3 -0.9 -3.9 -4.9 -3 -7.4 0.9 -2.3 6.1 -3.6 8.8 -2.2 3 1.5 3.7 6 1.3 8.7 -1.8 2.1 -3.6 2.3 -7.1 0.9z m5.7 -5.1 c0 -1.2 -0.7 -1.9 -2 -1.9 -2.4 0 -3.8 2.9 -2 4 1.9 1.2 4 0.1 4 -2.1z"/>
  <path d="M210 213.7 c-3.5 -1.7 -4 -6.9 -0.8 -9.1 1.2 -0.9 3 -1.6 4 -1.6 1.4 0 1.3 0.4 -0.7 2.6 -3.2 3.5 -3.1 5 0.2 5.9 3.4 0.8 5.5 -1.7 5.1 -5.9 -0.2 -1.6 0.2 -3.1 0.9 -3.3 1.6 -0.6 2.6 3.3 1.9 7.3 -1 5 -5.4 6.8 -10.6 4.1z"/>
  <path d="M301.5 211.5 c-1.4 -1.3 -2.5 -3 -2.5 -3.8 0 -3.8 8 -6.3 10.8 -3.5 2.8 2.8 -0.1 9.8 -3.9 9.8 -1.1 0 -3.1 -1.1 -4.4 -2.5z m6 -2.5 c0.4 -0.6 0.1 -1.7 -0.5 -2.6 -1.4 -1.6 -4 -0.2 -4 2.2 0 1.6 3.6 1.9 4.5 0.4z"/>
  <path d="M284.4 203 c-4.7 -1.8 -3.5 -8 1.5 -8 5.1 0 6.8 4.9 2.6 7.5 -1.3 0.8 -2.8 1 -4.1 0.5z"/>
  <path d="M260.1 192.6 c-0.7 -0.8 -1.1 -2.7 -0.9 -4.3 0.3 -2.5 0.7 -2.8 4.5 -3.1 3.5 -0.3 4.2 0 4.8 1.8 1.5 4.8 -5.3 9.3 -8.4 5.6z m5.7 -3.9 c0.4 -2.2 -2.7 -3.5 -3.8 -1.6 -1 1.5 0.7 4.2 2.4 3.6 0.6 -0.2 1.2 -1.1 1.4 -2z"/>
  <path d="M67.9 359 c-2.8 -1.6 -4.3 -6.4 -2.8 -9.2 2.8 -5.3 8.4 -6.4 12.4 -2.3 3 3 3.2 6.4 0.4 9.9 -2.2 2.7 -6.8 3.5 -10 1.6z"/>
  <path d="M948.2 358.4 c-2.8 -2 -3.1 -8.3 -0.4 -10.7 2.2 -2.1 9.5 -2.3 11.1 -0.4 4 4.9 0.8 12.7 -5.3 12.7 -1.7 0 -4.2 -0.7 -5.4 -1.6z"/>
  <path d="M79 329 c-4.5 -4.5 -1.3 -13 5 -13 4 0 8 3.9 8 7.8 0 6.1 -8.6 9.6 -13 5.2z"/>
  <path d="M936.7 329.9 c-4.6 -2.7 -4.1 -10.5 0.9 -12.8 3.8 -1.7 6.3 -1.3 8.9 1.4 3 3 3.2 6.4 0.4 9.9 -2.2 2.8 -6.8 3.5 -10.2 1.5z"/>
  <path d="M94.6 299.9 c-5.4 -4.3 -2.3 -12.9 4.7 -12.9 6.7 0 10.3 8.5 5.5 13 -2.8 2.6 -6.8 2.6 -10.2 -0.1z"/>
  <path d="M921.1 299.4 c-1.2 -1.5 -2.1 -3.4 -2.1 -4.4 0 -1 0.9 -2.9 2.1 -4.4 2.5 -3.2 8.6 -3.7 11.2 -0.8 2.3 2.5 2.2 8.5 -0.1 10.5 -3 2.7 -8.7 2.2 -11.1 -0.9z"/>
  <path d="M907.3 273.8 c-3 -1.5 -4.6 -5.8 -3.4 -9.1 2 -5.3 9.5 -6.5 13 -2.1 2.8 3.5 2.6 6.9 -0.4 9.9 -2.5 2.6 -5.6 3.1 -9.2 1.3z"/>
  <path d="M112.5 272.8 c-4.8 -2.6 -6 -8.3 -2.5 -11.8 2.7 -2.7 9 -2.7 11.5 0 2.8 3.1 2.4 7.9 -0.9 10.7 -3 2.5 -5 2.8 -8.1 1.1z"/>
  <path d="M888.5 245.5 c-1.4 -1.3 -2.5 -3.6 -2.5 -5 0 -3.6 4.2 -7.5 8 -7.5 6.6 0 9.9 8.9 4.8 13.3 -2.9 2.5 -7.4 2.2 -10.3 -0.8z"/>
  <path d="M128.3 243.4 c-2 -2 -2.4 -3.1 -1.9 -5.7 0.7 -3.9 3.9 -6.7 7.6 -6.7 3.7 0 6.9 2.8 7.6 6.7 0.8 4.1 -3 8.3 -7.6 8.3 -2 0 -4 -0.9 -5.7 -2.6z"/>
  <path d="M868.6 220.9 c-3 -2.4 -3.4 -6.3 -1 -9.7 2 -2.9 9.3 -3.1 11.7 -0.4 2.4 2.7 2.1 7.4 -0.6 10 -2.9 2.8 -6.7 2.8 -10.1 0.1z"/>
  <path d="M152.4 220.2 c-5.2 -0.8 -7.6 -8.2 -3.9 -12.2 2.6 -2.9 9.8 -2.8 11.9 0.2 2.1 3 2 6 -0.4 9 -2.1 2.7 -4.2 3.6 -7.6 3z"/>
  <path d="M847.1 197.3 c-5.6 -4.7 -2.4 -13.3 4.9 -13.3 7.1 0 10.4 7.6 5.5 12.5 -2.9 3 -7.4 3.3 -10.4 0.8z"/>
  <path d="M170.5 193.5 c-1.4 -1.3 -2.5 -3.6 -2.5 -5 0 -3.5 4.2 -7.5 7.8 -7.5 4.5 0 7.4 2.9 7.5 7.4 0.2 7.1 -7.8 10.2 -12.8 5.1z"/>
  <path d="M823.5 173.5 c-4.9 -4.8 -1.6 -12.5 5.3 -12.5 4.3 0 7.2 3 7.2 7.5 0 6.9 -7.6 10 -12.5 5z"/>
  <path d="M798.6 152.9 c-2 -1.6 -2.6 -2.9 -2.6 -5.8 0 -4.9 2.4 -7.1 7.8 -7.1 4.8 0 7.2 2.5 7.2 7.6 0 3.7 -3.8 7.4 -7.5 7.4 -1.2 0 -3.4 -0.9 -4.9 -2.1z"/>
  <path d="M246.7 131.2 c-2.9 -3.1 -3.1 -7.4 -0.7 -10.5 1.8 -2.2 2.9 -2.7 6.5 -2.7 5.1 0 7.5 2.4 7.5 7.5 0 5 -2.4 7.5 -7.4 7.5 -2.9 0 -4.8 -0.6 -5.9 -1.8z"/>
  <path d="M767.5 130.5 c-2.9 -2.8 -3.2 -7 -0.9 -10.3 1.2 -1.7 2.5 -2.2 6.3 -2.2 6.4 0 8.7 2.5 8.2 9.3 -0.4 5.5 -9.2 7.7 -13.6 3.2z"/>
  <path d="M283 114.3 c-9.1 -3.2 -7.4 -16.3 2.1 -16.3 9.7 0 11.4 14.3 1.9 16.3 -1.4 0.3 -3.2 0.3 -4 0z"/>
  <path d="M737.4 114 c-5.5 -2.2 -7 -9.5 -2.9 -13.5 5.1 -5.2 14.5 -1.6 14.5 5.4 0 5.7 -6.6 10.2 -11.6 8.1z"/>
  <path d="M314 95 c-1.3 -1.3 -2 -3.3 -2 -5.8 0 -5 3.2 -8.2 8.3 -8.2 5 0 7.7 2.8 7.7 8 0 5.3 -2.7 8 -8 8 -2.7 0 -4.7 -0.7 -6 -2z"/>
  <path d="M699.5 94.5 c-5.4 -5.3 -1.5 -13.5 6.4 -13.5 3.1 0 4.4 0.6 6 2.6 4.5 5.8 1.1 13.4 -6 13.4 -2.9 0 -4.7 -0.7 -6.4 -2.5z"/>
  <path d="M350.2 80.7 c-2.6 -2.8 -2.9 -8.2 -0.6 -11.5 1.2 -1.8 2.5 -2.2 6.4 -2.2 4.1 0 5.2 0.4 6.9 2.6 4.6 5.9 0.8 13.4 -6.7 13.4 -2.7 0 -4.5 -0.7 -6 -2.3z"/>
  <path d="M663.7 81.8 c-2.2 -1.8 -3.9 -6.6 -3.1 -9.2 1.3 -4.1 3.5 -5.6 8.5 -5.6 4 0 5.1 0.4 6.9 2.7 2.5 3.2 2.2 8.3 -0.6 11.4 -2 2.2 -9.1 2.6 -11.7 0.7z"/>
  <path d="M388.6 69.9 c-5.7 -4.5 -1.9 -14.9 5.4 -14.9 3.7 0 9 4.7 9 8 0 2.9 -2.6 7.6 -4.5 8.4 -3.2 1.2 -7.3 0.6 -9.9 -1.5z"/>
  <path d="M627.4 70.8 c-4.8 -2.3 -5.7 -9.2 -1.8 -13.2 5.5 -5.5 14.4 -1.8 14.4 5.9 0 6.5 -6.6 10.3 -12.6 7.3z"/>
  <path d="M429.3 63 c-4.8 -1.9 -5.8 -9.5 -1.8 -13.5 4.7 -4.8 12.8 -2.5 14.1 3.9 0.8 4.7 -0.2 7.4 -3.6 9.1 -3.2 1.7 -5.5 1.8 -8.7 0.5z"/>
  <path d="M588.5 62.8 c-3.3 -1.7 -4.5 -4 -4.5 -8 0 -5.3 2.7 -7.8 8.4 -7.8 3.6 0 4.8 0.5 6.5 2.6 5.9 7.5 -2.2 17.7 -10.4 13.2z"/>
  <path d="M469.4 58 c-5.3 -2.1 -6.9 -8.8 -3.3 -13.4 1.7 -2.1 2.9 -2.6 6.5 -2.6 5.5 0 8.4 2.5 8.4 7.4 0 4.8 -0.8 6.5 -4.1 8.1 -3.1 1.7 -4.4 1.8 -7.5 0.5z"/>
  <path d="M548.2 57.3 c-1.6 -0.6 -4.2 -5.6 -4.2 -8.2 0 -3.2 4.1 -7.1 8.3 -7.8 3.1 -0.5 4.2 -0.1 6.2 1.7 1.3 1.2 2.7 3.5 3 5.1 0.7 3.1 -1.5 8.3 -4 9.3 -1.9 0.7 -7.4 0.7 -9.3 -0.1z"/>
  <path d="M508.5 55.8 c-3.2 -1.8 -4.4 -4 -4.5 -7.9 0 -5 3 -7.9 8.1 -7.9 5.4 0 7.5 1.3 8.8 5.3 2.6 7.9 -5.3 14.5 -12.4 10.5z"/>
 </g>
</svg>